<svg xmlns="http://www.w3.org/2000/svg" width="31.184" height="18" viewBox="0 0 31.184 18">
  <path id="olho" d="M0-115a17.992,17.992,0,0,1,15.592-9,17.992,17.992,0,0,1,15.593,9,17.991,17.991,0,0,1-15.593,9A17.99,17.99,0,0,1,0-115Zm7.48-4.794A16.1,16.1,0,0,0,2.361-115a16.105,16.105,0,0,0,5.119,4.8A15.983,15.983,0,0,0,15.592-108a15.984,15.984,0,0,0,8.113-2.205,16.112,16.112,0,0,0,5.118-4.8,16.109,16.109,0,0,0-5.118-4.794A15.985,15.985,0,0,0,15.592-122,15.984,15.984,0,0,0,7.48-119.795ZM10.592-115a5,5,0,0,1,5-5,5,5,0,0,1,5,5,5,5,0,0,1-5,5A5,5,0,0,1,10.592-115Z" transform="translate(0 124)" fill="#fcfaf7"/>
</svg>
