<svg xmlns="http://www.w3.org/2000/svg" width="31.184" height="18" viewBox="0 0 31.184 18">
<g id="olho" transform="translate(226.592 -2080)">
<path id="Interseção_2" data-name="Interseção 2" d="M18,20A15.985,15.985,0,0,0,4.769,27a16,16,0,0,0,26.462,0A15.985,15.985,0,0,0,18,20" transform="translate(-229 2062)" fill="#E74F1D" opacity="1"/>
<path id="Interseção_2-2" data-name="Interseção 2" d="M18,20A15.985,15.985,0,0,0,4.769,27a16,16,0,0,0,26.462,0A15.985,15.985,0,0,0,18,20m0-2a17.991,17.991,0,0,1,15.592,9A18.006,18.006,0,0,1,2.408,27,17.991,17.991,0,0,1,18,18Z" transform="translate(-229 2062)" fill="#fff"/>
<circle id="Elipse_11" data-name="Elipse 11" cx="5" cy="5" r="5" transform="translate(-216 2084)" fill="#fff"/>
</g>
</svg>
