<svg xmlns="http://www.w3.org/2000/svg" width="1920" height="1107"><defs><clipPath id="a"><path data-name="Retângulo 226" transform="translate(0 1314)" fill="#fff" stroke="#707070" d="M0 0h1920v1107H0z"/></clipPath><filter id="b" x="-2189" y="903" width="6298" height="6298" filterUnits="userSpaceOnUse"><feOffset/><feGaussianBlur stdDeviation="15" result="blur"/><feFlood flood-opacity=".302"/><feComposite operator="in" in2="blur"/><feComposite in="SourceGraphic"/></filter></defs><g data-name="Grupo de máscara 18" transform="translate(0 -1314)" clip-path="url(#a)"><g data-name="Grupo 158"><path data-name="Caminho 231" d="M-34.152 1562.8s140.6-248.764 498.721-248.764 485.517 203.337 927.138 203.337 571.223-164.4 571.223-164.4v1042.649H-34.152Z" fill="#f29818"/><path data-name="Caminho 230" d="M-59.391 1877.664S68.5 1559.756 399.746 1559.756s549.914 193.337 932.646 193.337 610.762-193.337 610.762-193.337v835.866h-1985Z" fill="#eb9317"/><path data-name="Caminho 229" d="M-34.152 2039.287S172 1807.732 499.383 1807.732s713.355 155.409 1000.656 155.409 517.815-259.447 517.815-259.447l-8.792 669.927H-34.152Z" fill="#e38f16"/><path data-name="Caminho 228" d="M1 2232.997s75.659 53.945 371.8 53.945 741.087-246.326 1088.362-204.337 469.822 143.848 469.822 143.848v194.542H-25.364Z" fill="#de8b16"/></g><g transform="translate(0 1314)" filter="url(#b)"><path data-name="Caminho 271" d="M960 948c1714.292 0 3104 1389.708 3104 3104S2674.292 7156 960 7156s-3104-1389.708-3104-3104S-754.292 948 960 948Z" fill="#2ba58e"/></g></g></svg>