<svg xmlns="http://www.w3.org/2000/svg" width="1920" height="1601"><defs><clipPath id="a"><path data-name="Ret칙ngulo 232" transform="translate(-4321 2833)" fill="#fff" stroke="#707070" d="M0 0h1920v1601H0z"/></clipPath><clipPath id="b"><path data-name="Ret칙ngulo 111" transform="translate(0 1049)" fill="#fc9e19" d="M0 0h1920v950H0z"/></clipPath><filter id="c" x="-1606.868" y="1304.132" width="5133.735" height="5123.735" filterUnits="userSpaceOnUse"><feOffset/><feGaussianBlur stdDeviation="15" result="blur"/><feFlood flood-opacity=".302"/><feComposite operator="in" in2="blur"/><feComposite in="SourceGraphic"/></filter></defs><g data-name="Grupo de m치scara 22" transform="translate(4321 -2833)" clip-path="url(#a)"><g data-name="Grupo 237" opacity=".5"><path data-name="Caminho 231" d="M-4355.152 3282.086s140.6-383.776 498.721-383.776 485.517 313.7 927.138 313.7 571.223-253.626 571.223-253.626v1608.53h-1997.082Z" fill="rgba(0,0,0,0.15)" opacity=".5"/><path data-name="Caminho 230" d="M-4380.391 3789.433s127.891-490.444 459.137-490.444 549.914 298.268 932.646 298.268 610.762-298.268 610.762-298.268v1289.519h-1985Z" fill="rgba(0,0,0,0.15)" opacity=".5"/><path data-name="Caminho 229" d="M-4355.152 4017.179s206.152-357.228 533.536-357.228 713.354 239.756 1000.656 239.756 517.815-400.257 517.815-400.257l-8.792 1033.519h-2043.215Z" fill="rgba(0,0,0,0.15)" opacity=".5"/><path data-name="Caminho 228" d="M-4320 4316.021s75.659 83.219 371.8 83.219 741.087-380.016 1088.362-315.238 469.821 221.928 469.821 221.928v300.13h-1956.347Z" fill="rgba(0,0,0,0.05)"/></g><g data-name="Grupo de m치scara 3" transform="translate(-4321 2435)" clip-path="url(#b)"><g transform="translate(0 398)" filter="url(#c)"><path data-name="Caminho 173" d="M959.998 1349.13c1392.789 0 2521.868 1119.079 2521.868 2511.868S2352.787 6382.865 959.998 6382.865-1561.87 5253.787-1561.87 3860.998-432.791 1349.13 959.998 1349.13Z" fill="#0a375c"/></g></g></g></svg>