<svg version="1.1" id="Camada_2_00000106140850714951024340000007399148865673211529_" xmlns="http://www.w3.org/2000/svg" x="0" y="0" viewBox="0 0 16 16" style="enable-background:new 0 0 16 16" xml:space="preserve"><style>.st1{fill:none;stroke:#e0a43c;stroke-width:.35;stroke-linecap:round;stroke-miterlimit:10}</style><path d="m11.9 11.7.8-.1s-.9 2.1-.9 3.6" style="fill:none;stroke:#e0a43c;stroke-width:.35;stroke-linecap:round;stroke-linejoin:round;stroke-miterlimit:10"/><path class="st1" d="M11.1 15.2s0-1.6.9-1.6M12 13.6s.5.2.4 1.6M8.5 13.3s-.8.8-.8 2.1"/><path class="st1" d="M7.3 14.8s0-1.2.9-1c0 0 .5.1.3.7s-.1.7.2.7"/><path d="M2.5 8.5c-.2 0-.4-.3-.2-.5.4-.8 1.3-2.2 2.7-2.2 1.7 0 2.1.7 2.1.7s-.5-1 1.7-2S11 2.4 11 1.3s.6-.5.5.3l.3-.8s.5-.2.9-.1c.6.1.7.3.7.3l-1 .8s.6-.2.9.2c0 0-1.4.3-1.4 1.7s1.6 2.5 1.6 5.3c0 2.7-3.6 6.4-7.4 3.6C4.3 11 4 8.9 2.5 8.5z" style="fill:#998c71"/><path d="M.7 8s.3.3 1 .5c.6.2 2.4.6 2.7-.2h-.3L2.6 8l-.5-.3L.7 8z" style="fill:#856124"/><path d="M4.4 8.3c-.8 0-1-.7-1-.7C1.1 7.3.7 8 .7 8s1.5.4 2.5.4c1 .1 1.2-.1 1.2-.1z" style="fill:#e0a43c"/><ellipse transform="rotate(-55.236 4.309 7.017)" cx="4.3" cy="7" rx=".7" ry=".2"/><path d="M12.8 6c-.3 2.9-1.8 3.6-3 3.7-.8.1-1.5.5-2 1.1-.7.9-1.8.9-2.5.9.2.3.4.6.7.8 3.9 2.9 7.3-.2 7.5-3.5.1-1.1-.3-2.2-.7-3z" style="fill:#7d5b3b"/></svg>