<svg xmlns="http://www.w3.org/2000/svg" width="240" height="240.006"><g data-name="Grupo 55"><path data-name="Retângulo 107" fill="#dd5020" d="M0 0h240v240.006H0z"/><g data-name="Grupo 54"><g data-name="Grupo 46"><path data-name="Caminho 30" d="M43.958 32.29c0-7.492-3.284-12.91-11.843-12.91-8.633 0-11.982 4.7-11.982 12.2v7.134c0 7.92 3.136 11.912 8.988 11.912a6.956 6.956 0 0 0 6.7-3.92h.07v10.411c0 2.925-1.143 5-4.066 5s-3.994-1.714-3.994-4.71V54.19h-7.42v2.568c0 7.132 2.57 12.125 11.56 12.125 8.556 0 11.984-5.492 11.984-13.055Zm-8.064 7.419c-.144 2.709-1.283 4.423-3.85 4.423-2.779 0-3.853-1.714-3.853-4.852v-8.417c0-3.068 1.139-4.85 3.924-4.85 2.711 0 3.78 1.855 3.78 4.85Z" fill="#fff"/></g><g data-name="Grupo 47"><path data-name="Caminho 31" d="m181.309 157.748-28.528-16.463v-32.941a1.948 1.948 0 0 0-.972-1.686l-29.5-17.031a1.961 1.961 0 0 0-1.946 0l-29.5 17.031a1.942 1.942 0 0 0-.974 1.686v32.941l-28.526 16.463a1.952 1.952 0 0 0-.972 1.686v34.068a1.95 1.95 0 0 0 .972 1.688l29.5 17.028a1.949 1.949 0 0 0 1.946 0l28.525-16.467 28.525 16.467a1.97 1.97 0 0 0 .972.26 1.95 1.95 0 0 0 .974-.26l29.5-17.028a1.944 1.944 0 0 0 .972-1.688v-34.068a1.948 1.948 0 0 0-.972-1.686m-61.919 32.382-23.658-13.664 23.662-13.663Zm27.549-47.722-23.654 13.658v-27.32Zm-27.545 13.658-23.659-13.658 23.659-13.663Zm5.842 3.372 25.6-14.781 25.61 14.779-25.61 14.788Zm23.655-20.4-23.655-13.663 23.655-13.658Zm-31.443-13.663-23.663 13.662v-27.321ZM89.892 207.16l-25.611-14.782v-29.572l25.606 14.788Zm3.892 0v-27.319l23.66 13.661Zm84.607-14.781-25.61 14.78v-29.565l25.61-14.788Z" fill="#fff"/></g><g data-name="Grupo 48" fill="#fff"><path data-name="Caminho 32" d="M56.636 20.492h3.145V39.2h-3.145Z"/><path data-name="Caminho 33" d="M63.838 27.445V39.2h-2.649V20.492h3.091l3.393 10.734V20.492h2.621V39.2h-2.76Z"/><path data-name="Caminho 34" d="M81.081 25.513v8.665c0 2.871-1.187 5.023-4.551 5.023h-4.856V20.492h4.856c3.364 0 4.551 2.124 4.551 5.021Zm-4.936 11.121c1.3 0 1.793-.772 1.793-1.9v-9.8a1.639 1.639 0 0 0-1.793-1.876h-1.324v13.575Z"/><path data-name="Caminho 35" d="M91.595 20.492v14.157c0 2.9-1.243 4.773-4.442 4.773-3.31 0-4.69-1.878-4.69-4.773V20.492h3.145v14.459c0 1.1.441 1.849 1.545 1.849s1.545-.745 1.545-1.849V20.492Zm-1.932-1.326-4.938.635v-1.765l4.938-1.049Z"/></g><g data-name="Grupo 49"><path data-name="Caminho 36" d="M92.808 35.174v-2.51h2.925v2.567c0 1.048.469 1.654 1.545 1.654.993 0 1.435-.661 1.435-1.654v-.717a3.377 3.377 0 0 0-1.408-2.649l-1.848-1.849c-1.795-1.767-2.621-2.843-2.621-4.994v-.635c0-2.317 1.352-4.112 4.414-4.112 3.145 0 4.386 1.547 4.386 4.249v1.519h-2.869v-1.628c0-1.076-.5-1.6-1.489-1.6a1.382 1.382 0 0 0-1.491 1.545v.387c0 1.048.58 1.656 1.491 2.538l2.015 1.987c1.709 1.739 2.537 2.786 2.537 4.857v.911c0 2.567-1.38 4.388-4.579 4.388s-4.443-1.801-4.443-4.254Z" fill="#fff"/></g><g data-name="Grupo 50"><path data-name="Caminho 37" d="M102.023 20.492h8.359v2.567h-2.593v16.142h-3.173V23.059h-2.593Z" fill="#fff"/></g><g data-name="Grupo 51"><path data-name="Caminho 38" d="M114.577 30.618V39.2h-3.145V20.492h4.579c3.173 0 4.332 1.573 4.332 4.193v2.4c0 2.015-.717 3.2-2.51 3.614l3.006 8.5h-3.31Zm0-7.559v5.822h1.048a1.364 1.364 0 0 0 1.547-1.545v-2.76c0-1.021-.471-1.517-1.547-1.517Z" fill="#fff"/></g><g data-name="Grupo 52" fill="#fff"><path data-name="Caminho 39" d="M120.949 20.492h3.147V39.2h-3.147Z"/><path data-name="Caminho 40" d="m125.006 39.2 3.53-18.708h3.588l3.558 18.708h-3.228l-.58-3.421h-3.335l-.55 3.421Zm3.945-5.933h2.51l-1.243-7.5h-.026Z"/><path data-name="Caminho 41" d="m139.793 36.439-1.6 4.223h-1.765l.385-4.47h2.98Z"/><path data-name="Caminho 42" d="M143.656 20.492h3.145V39.2h-3.145Z"/><path data-name="Caminho 43" d="M150.857 27.445V39.2h-2.649V20.492h3.09l3.393 10.734V20.492h2.621V39.2h-2.758Z"/><path data-name="Caminho 44" d="M158.692 34.374v-9.05c0-2.925 1.435-5.051 4.745-5.051 3.338 0 4.773 2.125 4.773 5.051v9.05c0 2.9-1.435 5.051-4.773 5.051-3.31-.003-4.745-2.156-4.745-5.051Zm6.373.5v-10.05c0-1.13-.5-1.93-1.628-1.93-1.1 0-1.6.8-1.6 1.93v10.05c0 1.13.5 1.932 1.6 1.932 1.132-.005 1.626-.806 1.626-1.932Z"/><path data-name="Caminho 45" d="M179.66 20.492 176.102 39.2h-3.421l-3.56-18.708h3.2l2.152 13.051h.028l2.206-13.051Z"/><path data-name="Caminho 46" d="m180.046 39.2 3.532-18.708h3.586l3.558 18.708h-3.228l-.578-3.421h-3.338l-.552 3.421Zm3.947-5.933h2.509l-1.241-7.5h-.028Z"/><path data-name="Caminho 47" d="M194.945 41.105c.882-.028 1.021-.221 1.021-.441 0-.193-.165-.3-.441-.3h-.139v-1.021c-2.676-.33-3.78-2.345-3.78-4.966v-9.05c0-2.925 1.38-5.051 4.69-5.051 3.475 0 4.442 1.932 4.442 4.69v2.208h-2.869v-2.456c0-1.158-.387-1.819-1.517-1.819s-1.6.8-1.6 1.93v10.045c0 1.13.469 1.932 1.6 1.932s1.517-.719 1.517-1.821v-3.449h2.869v3.228c0 2.621-1.049 4.553-4.166 4.664v.248c.745.109 1.158.387 1.158.993 0 .856-.8 1.326-2.786 1.326Z"/><path data-name="Caminho 48" d="m201.537 39.201 3.532-18.708h3.586l3.558 18.708h-3.226l-.578-3.421h-3.338l-.552 3.421Zm2.456-19.454c.055-1.3.552-2.345 1.93-2.345.8 0 1.463.469 1.876.469a.371.371 0 0 0 .387-.415h1.551c-.054 1.3-.552 2.345-1.932 2.345-.8 0-1.461-.468-1.876-.468a.369.369 0 0 0-.385.413Zm1.489 13.521h2.512l-1.243-7.5h-.026Z"/><path data-name="Caminho 49" d="M213.099 34.374v-9.05c0-2.925 1.434-5.051 4.745-5.051 3.338 0 4.773 2.125 4.773 5.051v9.05c0 2.9-1.435 5.051-4.773 5.051-3.311-.003-4.745-2.156-4.745-5.051Zm6.373.5v-10.05c0-1.13-.5-1.93-1.628-1.93-1.1 0-1.6.8-1.6 1.93v10.05c0 1.13.5 1.932 1.6 1.932 1.132-.005 1.628-.806 1.628-1.932Z"/></g><g data-name="Grupo 53" fill="#fff"><path data-name="Caminho 50" d="M56.636 49.324h7.5v2.567h-4.36v5.353h3.117v2.537h-3.112v5.685h4.36v2.567h-7.5Z"/><path data-name="Caminho 51" d="M68.418 49.324h3.145v18.708h-3.145Z"/><path data-name="Caminho 52" d="M75.894 56.277v11.755h-2.649V49.324h3.09l3.393 10.734V49.324h2.621v18.708h-2.758Z"/><path data-name="Caminho 53" d="M84.006 49.324h7.366v2.567h-4.221v5.353h3.145v2.537h-3.145v8.252h-3.145Z"/><path data-name="Caminho 54" d="M95.758 59.45v8.582h-3.145V49.324h4.579c3.173 0 4.333 1.573 4.333 4.193v2.4c0 2.013-.719 3.2-2.512 3.613l3.008 8.5h-3.31Zm0-7.559v5.821h1.05a1.361 1.361 0 0 0 1.545-1.545v-2.758c0-1.021-.469-1.517-1.545-1.517Z"/><path data-name="Caminho 55" d="m102.573 68.032 3.532-18.708h3.586l3.56 18.708h-3.229l-.578-3.421h-3.338l-.552 3.421Zm3.945-5.932h2.512l-1.241-7.5h-.03Z"/><path data-name="Caminho 56" d="M114.41 49.324h7.5v2.567h-4.36v5.353h3.121v2.537h-3.119v5.685h4.36v2.567h-7.5Z"/><path data-name="Caminho 57" d="M123.266 64.005v-2.51h2.923v2.565c0 1.049.469 1.658 1.545 1.658.993 0 1.435-.663 1.435-1.658v-.717a3.376 3.376 0 0 0-1.406-2.647l-1.848-1.849c-1.795-1.765-2.623-2.843-2.623-4.994v-.635c0-2.317 1.354-4.112 4.414-4.112 3.145 0 4.388 1.545 4.388 4.251v1.517h-2.871v-1.628c0-1.076-.5-1.6-1.489-1.6a1.38 1.38 0 0 0-1.489 1.545v.387c0 1.048.578 1.656 1.489 2.539l2.015 1.986c1.71 1.739 2.537 2.788 2.537 4.857v.911c0 2.567-1.378 4.386-4.579 4.386s-4.441-1.796-4.441-4.252Z"/><path data-name="Caminho 58" d="M133.418 49.324h8.361v2.567h-2.595v16.142h-3.173V51.891h-2.593Z"/><path data-name="Caminho 59" d="M146.248 59.45v8.582h-3.145V49.324h4.579c3.173 0 4.332 1.573 4.332 4.193v2.4c0 2.013-.717 3.2-2.51 3.613l3.006 8.5h-3.31Zm0-7.559v5.821h1.049a1.36 1.36 0 0 0 1.544-1.545v-2.758c0-1.021-.468-1.517-1.544-1.517Z"/><path data-name="Caminho 60" d="M162.692 49.324v14.155c0 2.9-1.241 4.773-4.442 4.773-3.31 0-4.69-1.876-4.69-4.773V49.324h3.145v14.459c0 1.1.443 1.848 1.545 1.848s1.545-.745 1.545-1.848V49.324Z"/><path data-name="Caminho 61" d="M163.961 49.324h8.359v2.567h-2.593v16.142h-3.173V51.891h-2.593Z"/><path data-name="Caminho 62" d="M182.777 49.324v14.155c0 2.9-1.241 4.773-4.442 4.773-3.309 0-4.688-1.876-4.688-4.773V49.324h3.145v14.459c0 1.1.441 1.848 1.543 1.848s1.545-.745 1.545-1.848V49.324Z"/><path data-name="Caminho 63" d="M187.549 59.45v8.582h-3.145V49.324h4.581c3.171 0 4.33 1.573 4.33 4.193v2.4c0 2.013-.717 3.2-2.51 3.613l3.008 8.5h-3.31Zm0-7.559v5.821h1.05a1.361 1.361 0 0 0 1.545-1.545v-2.758c0-1.021-.469-1.517-1.545-1.517Z"/><path data-name="Caminho 64" d="m194.393 68.032 3.532-18.708h3.586l3.558 18.708h-3.228l-.578-3.421h-3.339l-.552 3.421Zm3.945-5.932h2.51l-1.241-7.5h-.028Z"/></g></g></g></svg>