<svg xmlns="http://www.w3.org/2000/svg" width="241.799" height="241.813"><g data-name="Grupo 82"><path data-name="Retângulo 109" fill="#005384" d="M0 0h241.799v241.813H0z"/><g data-name="Grupo 66"><path data-name="Caminho 96" d="M18.603 29.128v8.558h.073l5.753-5.969h.073v37.32h8.2V20.281h-6.541Z" fill="#fff"/></g><g data-name="Grupo 78"><g data-name="Grupo 67"><path data-name="Caminho 97" d="M61.393 57.319v-7.192c0-7.982-3.163-12.01-9.061-12.01a7.006 7.006 0 0 0-6.759 3.955h-.071v-10.5c0-2.949.93-5.035 3.882-5.035s3.81 1.725 3.81 4.745v3.243h7.478v-2.593c0-7.193-2.368-12.224-11.434-12.224-8.627 0-11.865 5.536-11.865 13.161v23.728c0 7.548 3.31 13.016 11.939 13.016 8.7 0 12.081-4.745 12.081-12.3m-8.126.717c0 3.091-1.153 4.89-3.955 4.89-2.733 0-3.81-1.869-3.81-4.89v-8.91c.142-2.733 1.293-4.46 3.882-4.46 2.8 0 3.882 1.727 3.882 4.892Z" fill="#fff"/></g><g data-name="Grupo 68"><path data-name="Caminho 98" d="M169.236 82.445s-2.786 3.7-1.977 7.309 4.927 5.751 4.927 5.751 2.79-3.7 1.977-7.306-4.927-5.754-4.927-5.754" fill="#fff"/></g><g data-name="Grupo 69"><path data-name="Caminho 99" d="M164.695 103.583s2.786-3.7 1.973-7.309-4.924-5.749-4.924-5.749-2.79 3.7-1.98 7.306 4.931 5.753 4.931 5.753" fill="#fff"/></g><g data-name="Grupo 70"><path data-name="Caminho 100" d="M176.146 99.62s2.943 2.968 6.291 2.669 5.838-3.746 5.838-3.746-2.938-2.968-6.293-2.671-5.836 3.748-5.836 3.748" fill="#fff"/></g><g data-name="Grupo 71"><path data-name="Caminho 101" d="M180.97 83.767c-2.728 2.77-2.342 7.665-2.342 7.665s4.809.416 7.54-2.349 2.341-7.662 2.341-7.662-4.81-.414-7.54 2.345" fill="#fff"/></g><g data-name="Grupo 72"><path data-name="Caminho 102" d="M174.954 110.623c3.34.4 6.477-2.473 6.477-2.473s-2.272-3.508-5.609-3.9-6.482 2.474-6.482 2.474 2.274 3.507 5.615 3.9" fill="#fff"/></g><g data-name="Grupo 73"><path data-name="Caminho 103" d="M177.937 168.642h-24.962a3.532 3.532 0 1 0 0 7.063h24.962a3.532 3.532 0 1 0 0-7.063" fill="#fff"/></g><g data-name="Grupo 74"><path data-name="Caminho 104" d="M177.937 207.569h-24.962a3.532 3.532 0 1 0 0 7.063h24.962a3.532 3.532 0 0 0 0-7.063" fill="#fff"/></g><g data-name="Grupo 75"><path data-name="Caminho 105" d="M65.672 160.068a16.02 16.02 0 0 0-1.734-.445s.641.2 1.734.445" fill="#fff"/></g><g data-name="Grupo 76"><path data-name="Caminho 106" d="M177.018 178.171h-23.132a2.012 2.012 0 0 0-2.008 2.01v7l-15.1 1.661-22.059-.506v-13.47a60.709 60.709 0 0 0 8.776-1.78c21.234-5.992 25.869-23.55 25.407-35.695-.464-12.375 3.5-17.178 9.183-19.314a25.642 25.642 0 0 1 4.716-1.25 37.761 37.761 0 0 0 2.039 10.779c.5-.025 1-.067 1.505-.122a35.764 35.764 0 0 1-2.081-10.868 26.53 26.53 0 0 1 5.035-.152 31.905 31.905 0 0 1-4.793-3.413c.955-5.859 4.444-9.454 8.041-13.133a43.308 43.308 0 0 0 5.627-6.608l-1.254-.808a41.674 41.674 0 0 1-5.444 6.372c-3.505 3.587-7.046 7.253-8.243 13.071a47.179 47.179 0 0 1-3.636-3.663c-5.237-5.87-11.978-1.559-21.59 7.393s-21.712 9.254-33.524-2.832c-15.584-15.952-29.179-15.864-38.5-14.959 6.374 2.715 8.608 8.675 11.835 23.821 3.381 15.892 11.914 23.085 23.582 24.075-6.489 2.3-6.812 5.958-15.508 11.964-6.79 4.686-16.347 3.206-20.219 2.324 7.109 2.217 15.531 9.677 23.069 12.272a55.8 55.8 0 0 0 13.753 2.821v12.9l-39.522-.9v9l73.8-1.688 15.1 1.663v7a2.014 2.014 0 0 0 2.008 2.014h23.133a2.018 2.018 0 0 0 2.014-2.014v-22.95a2.016 2.016 0 0 0-2.014-2.01m-70.889-2.823c1.645.028 3.3-.02 4.948-.133v13.044l-4.948-.115Z" fill="#fff"/></g><g data-name="Grupo 77"><path data-name="Caminho 107" d="M60.812 194.67a3.225 3.225 0 0 1-2.956 3.436h-1.775a3.227 3.227 0 0 1-2.958-3.436v-6.222a3.226 3.226 0 0 1 2.958-3.436h1.778a3.223 3.223 0 0 1 2.956 3.436Z" fill="#fff"/></g></g><g data-name="Grupo 79" fill="#fff"><path data-name="Caminho 108" d="M77.201 15.737h4.927c3.351 0 4.577 1.663 4.577 4.431v4.169c0 2.768-1.226 4.458-4.577 4.458h-1.6V35.5h-3.323Zm3.323 2.713v7.781h1.226a1.428 1.428 0 0 0 1.633-1.633v-4.545c0-1.08-.5-1.6-1.633-1.6Z"/><path data-name="Caminho 109" d="m87.584 35.501 3.73-19.764h3.79l3.76 19.764h-3.411l-.611-3.617h-3.528l-.583 3.617Zm4.167-6.268h2.651l-1.311-7.928h-.028Z"/><path data-name="Caminho 110" d="M103.175 32.789h5.042v2.712h-8.51v-2.712l5.218-14.339h-4.7v-2.713h8.191v2.713Z"/><path data-name="Caminho 111" d="m113.261 32.585-1.691 4.458h-1.865l.409-4.72h3.147Z"/><path data-name="Caminho 112" d="M126.435 15.737v15.274c0 2.857-1.252 4.722-4.577 4.722-3.438 0-4.371-1.9-4.371-4.4v-3.935h3.149v3.994c0 .992.349 1.574 1.222 1.574.905 0 1.254-.583 1.254-1.6V15.737Z"/><path data-name="Caminho 113" d="M137.656 15.737v14.955c0 3.059-1.311 5.041-4.692 5.041-3.5 0-4.954-1.982-4.954-5.041V15.737h3.323v15.274c0 1.167.466 1.953 1.631 1.953s1.633-.786 1.633-1.953V15.737Z"/><path data-name="Caminho 114" d="M139.057 31.245v-2.653h3.089v2.71c0 1.109.5 1.752 1.633 1.752 1.05 0 1.516-.7 1.516-1.752v-.756a3.564 3.564 0 0 0-1.486-2.8l-1.954-1.955c-1.9-1.865-2.768-3-2.768-5.276v-.668c0-2.45 1.428-4.345 4.663-4.345 3.323 0 4.635 1.633 4.635 4.49v1.6h-3.032V19.88c0-1.137-.524-1.691-1.575-1.691a1.458 1.458 0 0 0-1.573 1.633v.407c0 1.107.611 1.75 1.573 2.682l2.127 2.1c1.808 1.837 2.683 2.945 2.683 5.131v.962c0 2.71-1.458 4.633-4.839 4.633s-4.692-1.899-4.692-4.492Z"/><path data-name="Caminho 115" d="M149.668 15.737h8.833v2.713h-2.74v17.051h-3.353V18.45h-2.74Z"/><path data-name="Caminho 116" d="M159.754 15.737h3.323v19.764h-3.323Z"/><path data-name="Caminho 117" d="M168.206 37.511c.933-.028 1.08-.234 1.08-.468 0-.2-.175-.319-.468-.319h-.145v-1.079c-2.828-.351-3.994-2.478-3.994-5.246v-9.56c0-3.091 1.458-5.335 4.956-5.335 3.672 0 4.692 2.04 4.692 4.954v2.334h-3.032v-2.595c0-1.226-.407-1.925-1.6-1.925s-1.691.845-1.691 2.04v10.609c0 1.2.5 2.042 1.691 2.042s1.6-.758 1.6-1.923v-3.645h3.032v3.411c0 2.768-1.107 4.81-4.4 4.925v.262c.786.117 1.224.407 1.224 1.048 0 .905-.845 1.4-2.944 1.4Z"/><path data-name="Caminho 118" d="m175.319 35.501 3.73-19.764h3.79l3.76 19.764h-3.415l-.609-3.617h-3.53l-.581 3.617Zm4.167-6.268h2.653l-1.311-7.928h-.03Z"/><path data-name="Caminho 119" d="M190.448 15.737h7.923v2.713h-4.6v5.653h3.294v2.678h-3.294v6h4.6v2.712h-7.928Z"/></g><g data-name="Grupo 80" fill="#fff"><path data-name="Caminho 120" d="M77.317 41.712h3.323v19.76h-3.323Z"/><path data-name="Caminho 121" d="M85.626 49.057v12.416h-2.8v-19.76h3.264l3.585 11.337V41.712h2.77v19.76H89.53Z"/><path data-name="Caminho 122" d="M94.429 57.216v-2.651h3.091v2.71c0 1.107.494 1.75 1.631 1.75 1.05 0 1.516-.7 1.516-1.75v-.756a3.57 3.57 0 0 0-1.486-2.8l-1.954-1.953c-1.9-1.867-2.768-3-2.768-5.275v-.671c0-2.448 1.428-4.343 4.662-4.343 3.324 0 4.637 1.631 4.637 4.49v1.6h-3.032v-1.72c0-1.135-.524-1.69-1.575-1.69a1.457 1.457 0 0 0-1.573 1.631v.407c0 1.109.611 1.752 1.573 2.683l2.129 2.1c1.808 1.837 2.681 2.944 2.681 5.129v.962c0 2.71-1.458 4.635-4.84 4.635s-4.692-1.893-4.692-4.488Z"/><path data-name="Caminho 123" d="M105.594 41.712h8.833v2.71h-2.74v17.051h-3.351V44.422h-2.742Z"/><path data-name="Caminho 124" d="M116.235 41.712h3.325v19.76h-3.323Z"/><path data-name="Caminho 125" d="M121.364 41.712h8.829v2.71h-2.74v17.051h-3.351V44.422h-2.74Z"/><path data-name="Caminho 126" d="M141.65 41.712v14.952c0 3.061-1.311 5.042-4.692 5.042-3.5 0-4.956-1.982-4.956-5.042V41.712h3.323v15.272c0 1.165.468 1.953 1.633 1.953s1.633-.788 1.633-1.953V41.712Z"/><path data-name="Caminho 127" d="M143.779 41.712h3.323v19.76h-3.323Z"/><path data-name="Caminho 128" d="M152.787 63.488c.933-.028 1.079-.234 1.079-.466 0-.205-.175-.321-.468-.321h-.145v-1.08c-2.827-.349-3.994-2.476-3.994-5.244v-9.562c0-3.089 1.458-5.333 4.956-5.333 3.673 0 4.692 2.04 4.692 4.954v2.333h-3.03v-2.593c0-1.226-.407-1.925-1.6-1.925s-1.69.845-1.69 2.04v10.611c0 1.194.494 2.04 1.69 2.04s1.6-.758 1.6-1.925v-3.643h3.03v3.411c0 2.77-1.107 4.809-4.4 4.926v.262c.786.117 1.222.407 1.222 1.05 0 .9-.843 1.4-2.942 1.4Z"/><path data-name="Caminho 129" d="M160.979 56.373v-9.562c0-3.089 1.514-5.333 5.012-5.333 3.528 0 5.042 2.244 5.042 5.333v9.562c0 3.059-1.514 5.333-5.042 5.333-3.498 0-5.012-2.274-5.012-5.333Zm1.98-15.449c.06-1.371.583-2.478 2.042-2.478.843 0 1.544.5 1.982.5a.388.388 0 0 0 .406-.436h1.633c-.057 1.367-.581 2.476-2.039 2.476-.847 0-1.544-.5-1.982-.5a.392.392 0 0 0-.409.438Zm4.752 15.974V46.287c0-1.2-.524-2.04-1.72-2.04-1.165 0-1.69.845-1.69 2.04v10.611c0 1.194.524 2.04 1.69 2.04 1.196 0 1.72-.847 1.72-2.041Z"/><path data-name="Caminho 130" d="M173.192 41.712h7.927v2.71h-4.6v5.655h3.293v2.682h-3.293v6h4.6v2.712h-7.927Z"/><path data-name="Caminho 131" d="M182.985 57.216v-2.651h3.091v2.71c0 1.107.494 1.75 1.631 1.75 1.05 0 1.516-.7 1.516-1.75v-.756a3.57 3.57 0 0 0-1.486-2.8l-1.954-1.953c-1.893-1.867-2.766-3-2.766-5.275v-.671c0-2.448 1.426-4.343 4.661-4.343 3.323 0 4.635 1.631 4.635 4.49v1.6h-3.03v-1.72c0-1.135-.526-1.69-1.576-1.69a1.457 1.457 0 0 0-1.573 1.631v.407c0 1.109.611 1.752 1.573 2.683l2.129 2.1c1.808 1.837 2.681 2.944 2.681 5.129v.962c0 2.71-1.458 4.635-4.839 4.635s-4.693-1.893-4.693-4.488Z"/></g><g data-name="Grupo 81" fill="#fff"><path data-name="Caminho 132" d="M77.317 68.762h7.927v2.71h-4.6v5.655h3.292v2.681h-3.292v6.006h4.6v2.71h-7.927Z"/><path data-name="Caminho 133" d="M87.26 68.762h7.785v2.71h-4.46v5.655h3.323v2.681h-3.323v8.716h-3.323Z"/><path data-name="Caminho 134" d="M96.761 68.762h3.32v19.762h-3.32Z"/><path data-name="Caminho 135" d="M102.271 83.423v-9.558c0-3.092 1.456-5.336 4.955-5.336 3.672 0 4.692 2.04 4.692 4.956v2.333h-3.032v-2.6c0-1.222-.407-1.923-1.6-1.923s-1.69.847-1.69 2.042v10.609c0 1.2.494 2.04 1.69 2.04s1.6-.756 1.6-1.923V80.42h3.032v3.409c0 2.827-1.165 4.927-4.692 4.927-3.499.002-4.955-2.272-4.955-5.333Z"/><path data-name="Caminho 136" d="m113.463 88.524 3.734-19.762h3.788l3.76 19.762h-3.411l-.611-3.615h-3.526l-.584 3.615Zm4.169-6.266h2.653l-1.314-7.929h-.027Z"/><path data-name="Caminho 137" d="M129.613 85.814h5.042v2.71h-8.512v-2.71l5.219-14.343h-4.688v-2.71h8.19v2.71Z"/><path data-name="Caminho 138" d="M136.842 68.762h7.929v2.71h-4.607v5.655h3.3v2.681h-3.3v6.006h4.607v2.71h-7.929Z"/><path data-name="Caminho 139" d="M146.638 84.265v-2.651h3.089v2.71c0 1.109.5 1.75 1.631 1.75 1.048 0 1.516-.7 1.516-1.75v-.759a3.575 3.575 0 0 0-1.488-2.8l-1.952-1.954c-1.9-1.863-2.77-3-2.77-5.274v-.671c0-2.448 1.429-4.343 4.665-4.343 3.323 0 4.633 1.633 4.633 4.49v1.6h-3.03v-1.72c0-1.137-.526-1.69-1.574-1.69a1.456 1.456 0 0 0-1.573 1.629v.409c0 1.109.613 1.75 1.573 2.683l2.129 2.1c1.807 1.837 2.68 2.944 2.68 5.131v.962c0 2.712-1.456 4.635-4.837 4.635s-4.692-1.887-4.692-4.487Z"/></g></g></svg>