<svg xmlns="http://www.w3.org/2000/svg" width="241.802" height="241.813"><g data-name="Grupo 90"><path data-name="Retângulo 110" fill="#0e3756" d="M0 0h241.802v241.813H0z"/><g data-name="Grupo 84"><path data-name="Caminho 140" d="M36.182 20.265v48.753h-8.2v-37.32h-.073l-5.753 5.967h-.071V29.11l7.552-8.845Z" fill="#fff"/></g><g data-name="Grupo 85"><path data-name="Caminho 141" d="M39.921 20.265h20.567v7.55l-10.715 41.2h-8.129l10.931-42.063H39.921Z" fill="#fff"/></g><g data-name="Grupo 87"><g data-name="Grupo 86"><path data-name="Caminho 142" d="M182.359 146.653a31.531 31.531 0 0 0-30.338-31.47 31.491 31.491 0 0 0-59.388 0 31.472 31.472 0 0 0-18.179 56.3 31.473 31.473 0 0 0 48.026 34.718 31.475 31.475 0 0 0 47.773-34.753 31.458 31.458 0 0 0 12.106-24.791m-34.879-20.981a25.167 25.167 0 0 1-21.445 24.847 25.6 25.6 0 0 1-.324-3.866 25.163 25.163 0 0 1 21.442-24.847 25.015 25.015 0 0 1 .328 3.866m-25.035 72.357a25.08 25.08 0 0 1-.232-35.828 25.084 25.084 0 0 1 .232 35.828m-24.939-76.226a25.173 25.173 0 0 1 21.439 24.846 24.919 24.919 0 0 1-.331 3.866 25.169 25.169 0 0 1-21.443-24.847 24.875 24.875 0 0 1 .331-3.87m18.751 36.1a25.054 25.054 0 0 1-34.016 11.064 25.054 25.054 0 0 1 34.016-11.064m12.064-.169a25.065 25.065 0 0 1 34.185 11.2 25.065 25.065 0 0 1-34.185-11.2m-5.992-57.215a25.177 25.177 0 0 1 23.057 15.125 31.6 31.6 0 0 0-23.057 17.7 31.572 31.572 0 0 0-23.053-17.7 25.18 25.18 0 0 1 23.053-15.125m-53.685 46.135a25.187 25.187 0 0 1 22.456-25.007 32.083 32.083 0 0 0-.264 4.026 31.416 31.416 0 0 0 10.289 23.261 31.56 31.56 0 0 0-24.146 16.37 25.074 25.074 0 0 1-8.335-18.65m10.912 33.568a24.883 24.883 0 0 1 .549-5.211 31.444 31.444 0 0 0 28.9-.79 31.325 31.325 0 0 0 8.358 27.7 25.1 25.1 0 0 1-37.807-21.695m85.553-.209a25.114 25.114 0 0 1-37.56 21.846 31.353 31.353 0 0 0 8.062-27.667 31.408 31.408 0 0 0 28.985.79 24.938 24.938 0 0 1 .51 5.028m-21.379-31.261a31.349 31.349 0 0 0 9.832-27.1 25.109 25.109 0 0 1 14.2 43.588 31.56 31.56 0 0 0-24.027-16.484" fill="#fff"/></g></g><g data-name="Grupo 88" fill="#fff"><path data-name="Caminho 143" d="M71.145 20.209h4.926c3.353 0 4.577 1.661 4.577 4.43v4.167c0 2.772-1.224 4.462-4.577 4.462h-1.6v6.7h-3.323Zm3.323 2.71v7.782h1.228a1.428 1.428 0 0 0 1.633-1.631v-4.548c0-1.077-.5-1.6-1.633-1.6Z"/><path data-name="Caminho 144" d="m81.115 39.971 3.73-19.762h3.79l3.76 19.762h-3.411l-.613-3.615h-3.526l-.583 3.615Zm4.168-6.266h2.654l-1.311-7.93h-.03Z"/><path data-name="Caminho 145" d="M96.359 30.907v9.065h-3.323V20.209h4.839c3.351 0 4.577 1.661 4.577 4.43v2.536c0 2.127-.758 3.381-2.653 3.819l3.176 8.978h-3.5Zm0-7.988v6.151h1.107a1.44 1.44 0 0 0 1.633-1.633v-2.915c0-1.077-.5-1.6-1.633-1.6Z"/><path data-name="Caminho 146" d="M103.532 34.87v-9.562c0-3.089 1.456-5.333 4.954-5.333 3.672 0 4.692 2.04 4.692 4.956v2.331h-3.032v-2.595c0-1.222-.406-1.923-1.6-1.923s-1.69.847-1.69 2.042v10.609c0 1.2.5 2.04 1.69 2.04s1.6-.76 1.6-1.925v-3.642h3.032v3.411c0 2.825-1.165 4.926-4.692 4.926-3.498 0-4.954-2.279-4.954-5.335Z"/><path data-name="Caminho 147" d="M114.258 20.209h7.928v2.71h-4.6v5.655h3.294v2.682h-3.294v6h4.6v2.712h-7.928Z"/><path data-name="Caminho 148" d="M126.559 30.907v9.065h-3.323V20.209h4.84c3.353 0 4.577 1.661 4.577 4.43v2.536c0 2.127-.756 3.381-2.653 3.819l3.177 8.978h-3.5Zm0-7.988v6.151h1.107a1.441 1.441 0 0 0 1.633-1.633v-2.915c0-1.077-.5-1.6-1.633-1.6Z"/><path data-name="Caminho 149" d="M133.7 20.209h3.324v19.762H133.7Z"/><path data-name="Caminho 150" d="m137.694 39.971 3.73-19.762h3.79l3.76 19.762h-3.411l-.609-3.615h-3.53l-.583 3.615Zm4.169-6.266h2.653l-1.314-7.93h-.031Z"/><path data-name="Caminho 151" d="M149.442 35.713v-2.65h3.089v2.71c0 1.107.5 1.748 1.633 1.748 1.048 0 1.514-.7 1.514-1.748v-.758a3.57 3.57 0 0 0-1.486-2.8l-1.952-1.954c-1.9-1.865-2.77-3-2.77-5.274v-.671c0-2.448 1.429-4.343 4.664-4.343 3.323 0 4.633 1.633 4.633 4.49v1.6h-3.031v-1.718c0-1.137-.524-1.69-1.573-1.69a1.456 1.456 0 0 0-1.574 1.629v.409c0 1.109.613 1.748 1.574 2.681l2.127 2.1c1.808 1.837 2.683 2.944 2.683 5.129v.962c0 2.711-1.459 4.637-4.84 4.637s-4.691-1.894-4.691-4.489Z"/><path data-name="Caminho 152" d="M162.325 20.209h7.929v2.71h-4.607v5.655h3.3v2.682h-3.3v6h4.607v2.712h-7.929Z"/><path data-name="Caminho 153" d="M182.758 27.147h-.087l-2.244 12.825h-1.544l-2.48-12.825h-.058v12.825h-2.739V20.209h3.879l2.156 11.135h.03l1.923-11.135h4.2v19.762h-3.03Z"/><path data-name="Caminho 154" d="M186.958 20.209h7.928v2.71h-4.607v5.655h3.3v2.682h-3.3v6h4.607v2.712h-7.928Z"/><path data-name="Caminho 155" d="M195.936 20.209h3.323v19.762h-3.323Z"/><path data-name="Caminho 156" d="M200.424 34.87v-9.562c0-3.089 1.516-5.333 5.014-5.333 3.526 0 5.042 2.244 5.042 5.333v9.562c0 3.059-1.516 5.335-5.042 5.335-3.498 0-5.014-2.279-5.014-5.335Zm6.734.524V24.785c0-1.2-.524-2.042-1.72-2.042-1.165 0-1.691.847-1.691 2.042v10.609c0 1.2.526 2.04 1.691 2.04 1.196.001 1.72-.844 1.72-2.039Z"/><path data-name="Caminho 157" d="M211.472 35.713v-2.65h3.089v2.71c0 1.107.5 1.748 1.631 1.748 1.05 0 1.518-.7 1.518-1.748v-.758a3.572 3.572 0 0 0-1.488-2.8l-1.954-1.954c-1.893-1.865-2.768-3-2.768-5.274v-.671c0-2.448 1.429-4.343 4.665-4.343 3.323 0 4.633 1.633 4.633 4.49v1.6h-3.032v-1.718c0-1.137-.524-1.69-1.575-1.69a1.455 1.455 0 0 0-1.571 1.629v.409c0 1.109.609 1.748 1.571 2.681l2.129 2.1c1.808 1.837 2.681 2.944 2.681 5.129v.962c0 2.711-1.456 4.637-4.837 4.637s-4.692-1.894-4.692-4.489Z"/></g><g data-name="Grupo 89" fill="#fff"><path data-name="Caminho 158" d="M81.26 54.307v9.3c0 3.078-1.273 5.388-4.885 5.388h-5.211V48.919h5.211c3.611 0 4.885 2.279 4.885 5.388Zm-5.3 11.93c1.392 0 1.923-.831 1.923-2.042v-10.51a1.758 1.758 0 0 0-1.923-2.014h-1.42v14.566Z"/><path data-name="Caminho 159" d="M82.855 48.919h8.053v2.752H86.23v5.744h3.346v2.724H86.23v6.1h4.678v2.752h-8.053Z"/><path data-name="Caminho 160" d="M95.144 48.919h3.374V68.99h-3.374Z"/><path data-name="Caminho 161" d="M109.438 55.965h-.089L107.07 68.99h-1.569l-2.517-13.025h-.063V68.99h-2.782V48.919h3.937l2.195 11.309h.028l1.953-11.307h4.269v20.071h-3.078Z"/><path data-name="Caminho 162" d="M114.114 48.919h5c3.406 0 4.647 1.688 4.647 4.5v4.231c0 2.813-1.242 4.531-4.647 4.531h-1.628v6.808h-3.372Zm3.376 2.752v7.9h1.243a1.449 1.449 0 0 0 1.656-1.658v-4.619c0-1.095-.5-1.628-1.656-1.628Z"/><path data-name="Caminho 163" d="M125.155 48.919h3.376v17.318h4.026v2.752h-7.4Z"/><path data-name="Caminho 164" d="M133.768 48.919h8.053v2.752h-4.679v5.744h3.346v2.724h-3.346v6.1h4.679v2.752h-8.053Z"/><path data-name="Caminho 165" d="M152.566 55.965h-.087l-2.28 13.025h-1.569l-2.517-13.025h-.058V68.99h-2.784V48.919h3.937l2.191 11.309h.03l1.953-11.307h4.263v20.071h-3.08Z"/><path data-name="Caminho 166" d="M157.243 48.919h8.052v2.752h-4.679v5.744h3.348v2.724h-3.348v6.1h4.679v2.752h-8.052Z"/><path data-name="Caminho 167" d="M169.587 56.379v12.61h-2.843v-20.07h3.316l3.641 11.516V48.919h2.813V68.99h-2.96Z"/><path data-name="Caminho 168" d="M177.728 48.919h8.967v2.752h-2.781v17.318h-3.406V51.671h-2.781Z"/><path data-name="Caminho 169" d="m187.406 68.99 3.79-20.071h3.847l3.819 20.071h-3.463l-.623-3.672h-3.579l-.593 3.672Zm4.233-6.364h2.694l-1.332-8.053h-.03Z"/><path data-name="Caminho 170" d="M203.509 71.031c.946-.03 1.094-.237 1.094-.473 0-.207-.177-.326-.473-.326h-.149v-1.095c-2.871-.356-4.054-2.517-4.054-5.329v-9.709c0-3.138 1.479-5.418 5.032-5.418 3.73 0 4.766 2.072 4.766 5.034v2.366h-3.078v-2.634c0-1.243-.416-1.954-1.628-1.954s-1.718.859-1.718 2.074v10.774c0 1.213.5 2.072 1.718 2.072s1.628-.77 1.628-1.953v-3.7h3.078v3.464c0 2.813-1.125 4.883-4.47 5v.267c.8.119 1.243.414 1.243 1.066 0 .917-.859 1.42-2.99 1.42Z"/><path data-name="Caminho 171" d="m210.702 68.989 3.788-20.071h3.849l3.817 20.071h-3.463l-.62-3.672h-3.583l-.593 3.672Zm2.634-20.869c.06-1.392.593-2.517 2.072-2.517.859 0 1.571.5 2.014.5a.4.4 0 0 0 .414-.443h1.658c-.06 1.39-.592 2.515-2.072 2.515-.859 0-1.569-.5-2.014-.5a.4.4 0 0 0-.413.443Zm1.6 14.506h2.694l-1.332-8.053h-.03Z"/><path data-name="Caminho 172" d="M223.222 63.808v-9.709c0-3.138 1.539-5.418 5.092-5.418 3.581 0 5.122 2.279 5.122 5.418v9.709c0 3.108-1.541 5.416-5.122 5.416-3.553 0-5.092-2.307-5.092-5.416Zm6.838.533V53.567c0-1.215-.531-2.074-1.746-2.074-1.185 0-1.716.859-1.716 2.074v10.774c0 1.213.531 2.072 1.716 2.072 1.215.001 1.746-.858 1.746-2.072Z"/></g></g></svg>