<svg xmlns="http://www.w3.org/2000/svg" width="241" height="241.01"><g data-name="Grupo 148"><path data-name="Retângulo 106" fill="#a81122" stroke="#a81122" d="M.5.5h240v240.011H.5z"/><path data-name="União 1" d="M109.553 206.669h-2.869l-52.077-14.417v-84.626l4.623-3.648v85.033l47.673 13.317h4.868l47.885-15.472v-82.878l4.619 3.648v82.537l-4.243 1.249-48.045 15.257Zm69.1-23.425v-71.622h10.2v71.622l-5.091 17.821Zm-67.027-53.939 43.376-25.045v80.489l-43.376 13.038Zm-47.765 55.453v-80.5l43.1 24.886v68.62Zm114.792-77.13v-5.5a5.1 5.1 0 1 1 10.2 0v5.5ZM72.778 70.33v-1.332c-2.635-.464-3.767-2.4-3.767-5.07v-9.5c0-3.07 1.508-5.3 4.984-5.3 3.5 0 5.009 2.23 5.009 5.3v9.5c0 2.144-.753 3.823-2.432 4.635l2.432.464v2.46Zm-.467-16.423v10.717c0 1.16.523 2.028 1.682 2.028 1.187 0 1.708-.868 1.708-2.028V53.907c0-1.188-.521-2.028-1.708-2.028-1.159.001-1.682.84-1.682 2.028Zm8.807 10.312v-14.86h3.3v15.179c0 1.158.463 1.939 1.621 1.939s1.623-.781 1.623-1.939V49.359h3.046v14.86c0 3.042-1.306 5.011-4.666 5.011-3.474.001-4.923-1.969-4.923-5.011Zm-42.976 4.874v-7.861H23.778v-5L37.854 20.64h8v34.235h3.294v6.358h-3.289v7.861Zm-7.218-14.218h7.361v-19.94h-.074Zm124.845 14.123V49.359h7.88v2.695h-4.578v5.62h3.274v2.663h-3.274v5.969h4.578v2.693Zm-11.992 0V49.359h5.1c3.533 0 4.779 2.23 4.779 5.271v9.1c0 3.013-1.246 5.271-4.779 5.271Zm3.3-2.693h1.391c1.361 0 1.882-.812 1.882-2V54.023a1.72 1.72 0 0 0-1.882-1.97h-1.39Zm-8.285 2.693-.609-3.593h-3.5l-.579 3.593h-3.126l3.707-19.64h3.766l3.737 19.64Zm-3.679-6.227h2.635l-1.3-7.879h-.031Zm-15.611 6.227V49.359h5.1c3.534 0 4.779 2.23 4.779 5.271v9.1c0 3.013-1.245 5.271-4.779 5.271Zm3.3-2.693h1.391c1.361 0 1.882-.812 1.882-2V54.023a1.72 1.72 0 0 0-1.882-1.97h-1.389Zm-8.748 2.693V49.359h3.3v19.64Zm-8.98 0V49.359h3.3v16.947h3.939v2.693Zm-4.982 0-.609-3.593h-3.505l-.579 3.593h-3.13l3.709-19.639h3.765l3.735 19.639Zm-3.679-6.227h2.637l-1.3-7.879h-.03Zm32.281-20.5c.927-.029 1.072-.232 1.072-.464 0-.2-.173-.32-.464-.32h-.144v-1.07c-2.811-.348-3.969-2.462-3.969-5.213v-9.5c0-3.07 1.448-5.3 4.925-5.3 3.649 0 4.662 2.028 4.662 4.925v2.317h-3.011v-2.585c0-1.217-.4-1.912-1.593-1.912s-1.68.842-1.68 2.03v10.543c0 1.187.492 2.028 1.68 2.028s1.593-.753 1.593-1.913v-3.619h3.013v3.388c0 2.751-1.1 4.779-4.371 4.9v.261c.781.116 1.214.406 1.214 1.043 0 .9-.838 1.391-2.925 1.391Zm19.062-7.067v-9.5c0-3.07 1.507-5.3 4.981-5.3 3.5 0 5.01 2.232 5.01 5.3v9.5c0 3.041-1.507 5.3-5.01 5.3-3.473-.003-4.98-2.261-4.98-5.302Zm3.3-10.022v10.54c0 1.187.521 2.028 1.679 2.028 1.188 0 1.708-.841 1.708-2.028V25.179c0-1.188-.52-2.03-1.708-2.03-1.157.001-1.675.838-1.675 2.03Zm-48.432 10.02v-9.5c0-3.07 1.45-5.3 4.925-5.3 3.65 0 4.665 2.028 4.665 4.925v2.317H109.2v-2.583c0-1.217-.406-1.912-1.592-1.912s-1.681.842-1.681 2.03v10.543c0 1.187.492 2.028 1.681 2.028s1.592-.753 1.592-1.913v-3.619h3.014v3.388c0 2.81-1.158 4.9-4.665 4.9-3.471-.005-4.925-2.263-4.925-5.304Zm-11.671.285V20.631h3.3v15.177c0 1.16.464 1.941 1.624 1.941s1.623-.781 1.623-1.941V20.631h3.039v14.856c0 3.042-1.3 5.011-4.662 5.011-3.476.003-4.924-1.966-4.924-5.011Zm82.18 4.781V20.631h7.88v2.693h-4.578v5.62h3.272v2.665h-3.272v5.967h4.578v2.695Zm-11.327 0V20.631h5.1c3.534 0 4.781 2.23 4.781 5.272v9.094c0 3.013-1.247 5.273-4.781 5.273Zm3.3-2.695h1.394c1.361 0 1.882-.812 1.882-2V25.294a1.72 1.72 0 0 0-1.882-1.969h-1.394Zm-21.667 2.695-.607-3.593h-3.506l-.579 3.593h-3.128l3.707-19.64h3.767l3.737 19.64Zm-3.679-6.229h2.637l-1.3-7.879h-.029Zm-18.882 6.231-.608-3.593h-3.5l-.592 3.593h-3.13l3.709-19.64h3.765l3.737 19.64Zm-3.678-6.229h2.635l-1.3-7.879h-.03ZM78.931 40.27V20.631h5.1c3.534 0 4.781 2.23 4.781 5.272v9.094c0 3.013-1.247 5.273-4.781 5.273Zm3.3-2.695h1.39c1.361 0 1.884-.812 1.884-2V25.294a1.721 1.721 0 0 0-1.884-1.969h-1.39ZM69.052 40.27V20.631h7.88v2.693h-4.578v5.62h3.275v2.665h-3.275v5.967h4.578v2.695Zm71.173-20.857a.389.389 0 0 0-.406.435h-1.624c.061-1.361.583-2.461 2.03-2.461.84 0 1.535.491 1.97.491a.388.388 0 0 0 .4-.435h1.621c-.057 1.362-.58 2.462-2.026 2.462-.836.001-1.532-.492-1.965-.492Z" fill="#fff"/></g></svg>