<svg xmlns="http://www.w3.org/2000/svg" width="436.266" height="227.99"><defs><filter id="a" x="0" y="0" width="436.266" height="227.99" filterUnits="userSpaceOnUse"><feOffset dx="5" dy="5"/><feGaussianBlur result="blur"/><feFlood flood-color="#005749"/><feComposite operator="in" in2="blur"/><feComposite in="SourceGraphic"/></filter></defs><g filter="url(#a)"><path data-name="Caminho 199" d="M46.446 15.66 35.82 73.817 20.998 75.96l-21-54.414 13.479-2.439 13.316 43.861 5.753-46.087Zm50.6 29.982q0 12.052-7.181 20.408a22.578 22.578 0 0 1-18.014 8.61 23.475 23.475 0 0 1-18.1-8.1q-7.307-8.1-7.307-20.114 0-12.094 7.223-20.576a22.7 22.7 0 0 1 17.973-8.524 23.244 23.244 0 0 1 18.057 8.188q7.349 8.1 7.349 20.109ZM85.54 44.93a18.084 18.084 0 0 0-3.779-11.632 12.217 12.217 0 0 0-10.041-4.871q-6.215 0-10.372 5.585a19.75 19.75 0 0 0-3.905 12.262 18.016 18.016 0 0 0 3.863 11.758 12.5 12.5 0 0 0 10.12 4.745 12.2 12.2 0 0 0 10.33-5.543A20.266 20.266 0 0 0 85.54 44.93Zm55.98 27.924q-14.571 0-24.775-3.191-15.206-4.871-18.225-16.003a11.086 11.086 0 0 1-.252-2.729q0-9.364 11.3-20.072a84.049 84.049 0 0 1 18.938-13.521l2.729 12.6a51.417 51.417 0 0 0-12.43 7.391q-7.349 6.089-7.349 12.052 0 7.6 10.96 10.666a51.076 51.076 0 0 0 16.461 1.722Zm37.667-1.218-35.991 4.116-4.451-56.354 36.7-4.241.924 11.926-25.069 2.939 1.3 12.01 15.747-1.68.882 10.288-18.645 1.806.924 11.254 26.959-3.149Zm-14.7-61.057-4.913.882-3.821-6.761-3.863 6.971-4.745-.882 6.593-10.792 4.241.126Zm90.787 46.317q0 10.078-16.713 15.327a91.992 91.992 0 0 1-24.187 3.779l-1.177-11.084q2.058.126 3.4.126 2.268 0 9.952-.63a47.543 47.543 0 0 0 9.868-1.6q6.593-1.932 6.593-6.509a5.144 5.144 0 0 0-1.05-3.023q-1.6-2.31-8.818-2.646-10.456-.5-13.144-1.134-7.307-1.806-9.742-7.6a16.7 16.7 0 0 1-1.218-6.3q0-10.036 15.915-15.327a94.961 94.961 0 0 1 23.642-4.325l-.5 12.85a113.705 113.705 0 0 0-15.453 1.134q-12.052 1.974-12.052 6.3a5.915 5.915 0 0 0 1.134 3.317q1.806 2.771 9.2 3.275 12.01.714 13.312 1.008 7.475 1.554 9.826 7.013a15.454 15.454 0 0 1 1.211 6.05Zm43.083 15.035-12.472 1.637-3.865-11.254-13.9 2.94-1.131 9.784-12.556-.462 10.246-56.816 11.338-.42Zm-18.9-18.687L272.07 32.29l-2.813 22.928Zm64 3.065q0 8.608-18.351 13.9a116.616 116.616 0 0 1-12.052 2.792q-6.257 1.113-13.06 1.659l-3.485-57.193q6.173-.5 12.094-.5 29.017 0 29.017 10.33 0 5.291-7.139 10.54a43.453 43.453 0 0 1-11.464 6 45.492 45.492 0 0 1 14.613 2.729q9.826 3.487 9.826 9.743Zm-22-24.943q0-5.879-9.322-5.879a48.8 48.8 0 0 0-6 .5l.63 12.892q14.687-1.088 14.687-7.513Zm6.215 25.111q0-6.635-10.96-6.635-1.764 0-3.674.147t-4.052.441l.8 14.193q17.881-.163 17.881-8.146Zm32.208-38.381-2.902 56.774-11.3-1.218 2.52-56.605Zm45.935 53.835-12.472 1.637-3.863-11.254-13.9 2.939-1.133 9.785-12.556-.462 10.246-56.816 11.338-.42ZM386.92 53.244l-7.392-20.954-2.813 22.928Zm33.592 11.086-2.855 15.915-4.661-1.218-1.6-14.4ZM83.286 189.885q0 17.461-28.956 26.555a159.382 159.382 0 0 1-41.91 6.548l-2.033-19.207q3.565.218 5.893.218 3.929 0 17.243-1.091 11.422-.946 17.1-2.765 11.422-3.347 11.422-11.277a8.912 8.912 0 0 0-1.825-5.238q-2.765-4-15.278-4.583-18.116-.873-22.772-1.964-12.656-3.129-16.876-13.169a28.943 28.943 0 0 1-2.11-10.913q0-17.388 27.574-26.555 16.806-5.748 40.962-7.494l-.873 22.263a197 197 0 0 0-26.773 1.964q-20.88 3.419-20.88 10.913a10.248 10.248 0 0 0 1.964 5.748q3.128 4.8 15.933 5.675 20.806 1.236 23.061 1.747 12.95 2.692 17.024 12.15a26.774 26.774 0 0 1 2.11 10.475Zm74.646 26.046-21.612 2.837-6.693-19.5-24.078 5.092-1.964 16.952-21.753-.8 17.751-98.434 19.644-.728Zm-32.739-32.371-12.8-36.3-4.875 39.724Zm110.877 5.311q0 14.915-31.793 24.082a202.046 202.046 0 0 1-20.88 4.838q-10.84 1.928-22.626 2.874l-6.039-99.091q10.695-.873 20.953-.873 50.273 0 50.273 17.9 0 9.167-12.368 18.261a75.285 75.285 0 0 1-19.862 10.4 78.818 78.818 0 0 1 25.318 4.729q17.024 6.035 17.024 16.876Zm-38.123-43.22q0-10.186-16.151-10.186a84.557 84.557 0 0 0-10.4.873l1.091 22.335q25.46-1.891 25.46-13.022Zm10.767 43.509q0-11.5-18.989-11.5-3.056 0-6.366.255t-7.021.764l1.382 24.591q30.994-.289 30.994-14.11Zm55.806-66.5-5.02 98.363-19.571-2.11 4.365-98.072Zm79.593 93.271-21.608 2.837-6.693-19.5-24.086 5.092-1.964 16.952-21.753-.8 17.752-98.436 19.644-.728ZM311.37 183.56l-12.8-36.3-4.875 39.724Zm5.529-93.925-16.369 21.167-7.13-4.22 8.949-19.5Zm114.369 65.325a27.857 27.857 0 0 1-3.565 14.042q-5.238 9.094-19.789 12.077-6.111.655-12.114 1.31t-11.968 1.382q-11.859 1.964-12.368 9.676l-21.026-1.382q.509-16.879 13.678-21.972a42.73 42.73 0 0 1 9.713-1.964q6.439-.728 16.26-1.019 15.715-.364 19.062-5.457a9.851 9.851 0 0 0 2.183-5.966q0-7.2-20.808-10.913a186.206 186.206 0 0 0-26.628-2.614l-.655-22.19q11.786 1.164 21.863 3.165a129.937 129.937 0 0 1 18.589 5.056q27.573 9.675 27.573 26.769Zm-60.6 45.18-1.819 19.062-20.153-.873 1.382-18.407Z" fill="#2ba58e"/></g></svg>