<svg xmlns="http://www.w3.org/2000/svg" xmlns:xlink="http://www.w3.org/1999/xlink" width="368" height="532" viewBox="0 0 368 532">
  <defs>
    <linearGradient id="linear-gradient" x1="0.5" y1="0.279" x2="0.5" y2="1" gradientUnits="objectBoundingBox">
      <stop offset="0" stop-color="#2ba58e"/>
      <stop offset="1" stop-color="#196153"/>
    </linearGradient>
    <clipPath id="clip-path">
      <rect id="Retângulo_196" data-name="Retângulo 196" width="368" height="532" fill="#e74f1d" opacity="0.5"/>
    </clipPath>
  </defs>
  <g id="Grupo_242" data-name="Grupo 242" transform="translate(-584 -1411)">
    <rect id="Retângulo_212" data-name="Retângulo 212" width="368" height="532" transform="translate(584 1411)" fill="url(#linear-gradient)"/>
    <rect id="Retângulo_213" data-name="Retângulo 213" width="368" height="228" transform="translate(584 1715)" fill="#fcfaf7"/>
    <g id="Grupo_de_máscara_10" data-name="Grupo de máscara 10" transform="translate(584 1411)" opacity="0.8" clip-path="url(#clip-path)">
      <path id="Caminho_232" data-name="Caminho 232" d="M184,1602.571s77.491-81.225,77.491-280.433-94.886,53.122-94.886,53.122Z" transform="translate(-200 -1398.492)" fill="rgba(0,0,0,0.06)" opacity="0.5"/>
      <path id="Caminho_234" data-name="Caminho 234" d="M200,1694.931s194.474,20.937,213.472-107.4S568,1403.656,568,1403.656l-62.675-62.978H246.8l-55.355,45.547Z" transform="translate(-200 -1405.684)" fill="rgba(0,0,0,0.04)"/>
      <path id="Caminho_233" data-name="Caminho 233" d="M193.271,1638.962s158.034,22.1,153.289-166.5-115.332-165.373-115.332-165.373L200,1369.223Z" transform="translate(-200 -1403.076)" fill="rgba(0,0,0,0.05)"/>
    </g>
  </g>
</svg>
