<svg xmlns="http://www.w3.org/2000/svg" xmlns:xlink="http://www.w3.org/1999/xlink" width="436.266" height="227.99" viewBox="0 0 436.266 227.99">
  <defs>
    <filter id="Caminho_199" x="0" y="0" width="436.266" height="227.99" filterUnits="userSpaceOnUse">
      <feOffset dx="5" dy="5" input="SourceAlpha"/>
      <feGaussianBlur result="blur"/>
      <feFlood flood-color="#005749"/>
      <feComposite operator="in" in2="blur"/>
      <feComposite in="SourceGraphic"/>
    </filter>
  </defs>
  <g transform="matrix(1, 0, 0, 1, 0, 0)" filter="url(#Caminho_199)">
    <path id="Caminho_199-2" data-name="Caminho 199" d="M45.226-59,34.6-.843,19.778,1.3l-21-54.414,13.479-2.439L25.573-11.692l5.753-46.087Zm50.6,29.982q0,12.052-7.181,20.408A22.578,22.578,0,0,1,70.631,0a23.475,23.475,0,0,1-18.1-8.1q-7.307-8.1-7.307-20.114,0-12.094,7.223-20.576a22.7,22.7,0,0,1,17.973-8.524,23.244,23.244,0,0,1,18.057,8.188Q95.826-41.026,95.826-29.017ZM84.32-29.73a18.084,18.084,0,0,0-3.779-11.632A12.217,12.217,0,0,0,70.5-46.233q-6.215,0-10.372,5.585a19.75,19.75,0,0,0-3.905,12.262,18.016,18.016,0,0,0,3.863,11.758,12.5,12.5,0,0,0,10.12,4.745,12.2,12.2,0,0,0,10.33-5.543A20.266,20.266,0,0,0,84.32-29.73ZM140.3-1.806q-14.571,0-24.775-3.191Q100.319-9.868,97.3-21a11.086,11.086,0,0,1-.252-2.729q0-9.364,11.3-20.072a84.049,84.049,0,0,1,18.938-13.521l2.729,12.6a51.417,51.417,0,0,0-12.43,7.391q-7.349,6.089-7.349,12.052,0,7.6,10.96,10.666a51.076,51.076,0,0,0,16.461,1.722Zm37.667-1.218L141.976,1.092l-4.451-56.354,36.7-4.241.924,11.926L150.08-44.638l1.3,12.01,15.747-1.68.882,10.288-18.645,1.806.924,11.254,26.959-3.149Zm-14.7-61.057-4.913.882-3.821-6.761-3.863,6.971-4.745-.882,6.593-10.792,4.241.126Zm90.787,46.317q0,10.078-16.713,15.327a91.992,91.992,0,0,1-24.187,3.779L211.977-9.742q2.058.126,3.4.126,2.268,0,9.952-.63a47.543,47.543,0,0,0,9.868-1.6q6.593-1.932,6.593-6.509a5.144,5.144,0,0,0-1.05-3.023q-1.6-2.31-8.818-2.646-10.456-.5-13.144-1.134-7.307-1.806-9.742-7.6a16.7,16.7,0,0,1-1.218-6.3q0-10.036,15.915-15.327a94.961,94.961,0,0,1,23.642-4.325l-.5,12.85a113.705,113.705,0,0,0-15.453,1.134q-12.052,1.974-12.052,6.3a5.915,5.915,0,0,0,1.134,3.317q1.806,2.771,9.2,3.275,12.01.714,13.312,1.008,7.475,1.554,9.826,7.013A15.454,15.454,0,0,1,254.053-17.763ZM297.137-2.729,284.665-1.092,280.8-12.346,266.9-9.406,265.769.378,253.213-.084,263.459-56.9l11.338-.42Zm-18.9-18.687L270.85-42.37l-2.813,22.928Zm64,3.065q0,8.608-18.351,13.9a116.616,116.616,0,0,1-12.052,2.792Q305.577-.546,298.774,0l-3.485-57.193q6.173-.5,12.094-.5,29.017,0,29.017,10.33,0,5.291-7.139,10.54a43.453,43.453,0,0,1-11.464,6,45.492,45.492,0,0,1,14.613,2.729Q342.236-24.607,342.236-18.351Zm-22-24.943q0-5.879-9.322-5.879a48.8,48.8,0,0,0-6,.5l.63,12.892Q320.232-36.869,320.232-43.294Zm6.215,25.111q0-6.635-10.96-6.635-1.764,0-3.674.147t-4.052.441l.8,14.193Q326.447-10.2,326.447-18.183Zm32.208-38.381L355.758.21l-11.3-1.218,2.52-56.605ZM404.595-2.729,392.123-1.092,388.26-12.346l-13.9,2.939L373.227.378,360.671-.084,370.917-56.9l11.338-.42ZM385.7-21.416,378.308-42.37l-2.813,22.928ZM419.292-10.33,416.437,5.585l-4.661-1.218-1.6-14.4ZM82.066,115.225q0,17.461-28.956,26.555A159.382,159.382,0,0,1,11.2,148.328L9.167,129.121q3.565.218,5.893.218,3.929,0,17.243-1.091,11.422-.946,17.1-2.765,11.422-3.347,11.422-11.277A8.912,8.912,0,0,0,59,108.968q-2.765-4-15.278-4.583-18.116-.873-22.772-1.964Q8.294,99.292,4.074,89.252a28.943,28.943,0,0,1-2.11-10.913q0-17.388,27.574-26.555Q46.344,46.036,70.5,44.29l-.873,22.263a197,197,0,0,0-26.773,1.964q-20.88,3.419-20.88,10.913a10.248,10.248,0,0,0,1.964,5.748q3.128,4.8,15.933,5.675Q60.677,92.089,62.932,92.6q12.95,2.692,17.024,12.15A26.774,26.774,0,0,1,82.066,115.225Zm74.646,26.046L135.1,144.108l-6.693-19.5L104.329,129.7l-1.964,16.952-21.753-.8L98.363,47.418l19.644-.728ZM123.973,108.9l-12.8-36.3-4.875,39.724Zm110.877,5.311q0,14.915-31.793,24.082a202.046,202.046,0,0,1-20.88,4.838q-10.84,1.928-22.626,2.874l-6.039-99.091q10.695-.873,20.953-.873,50.273,0,50.273,17.9,0,9.167-12.368,18.261a75.285,75.285,0,0,1-19.862,10.4,78.818,78.818,0,0,1,25.318,4.729Q234.85,103.366,234.85,114.207ZM196.727,70.991q0-10.186-16.151-10.186a84.557,84.557,0,0,0-10.4.873l1.091,22.335Q196.727,82.122,196.727,70.991ZM207.494,114.5q0-11.5-18.989-11.5-3.056,0-6.366.255t-7.021.764l1.382,24.591Q207.494,128.321,207.494,114.5ZM263.3,48l-5.02,98.363-19.571-2.11,4.365-98.072Zm79.593,93.271-21.608,2.837-6.693-19.5L290.506,129.7l-1.964,16.952-21.753-.8,17.752-98.436,19.644-.728ZM310.15,108.9l-12.8-36.3-4.875,39.724Zm5.529-93.925L299.31,36.142l-7.13-4.22,8.949-19.5ZM430.048,80.3a27.857,27.857,0,0,1-3.565,14.042q-5.238,9.094-19.789,12.077-6.111.655-12.114,1.31t-11.968,1.382q-11.859,1.964-12.368,9.676l-21.026-1.382q.509-16.879,13.678-21.972a42.73,42.73,0,0,1,9.713-1.964q6.439-.728,16.26-1.019,15.715-.364,19.062-5.457a9.851,9.851,0,0,0,2.183-5.966q0-7.2-20.808-10.913A186.206,186.206,0,0,0,362.678,67.5l-.655-22.19q11.786,1.164,21.863,3.165a129.937,129.937,0,0,1,18.589,5.056Q430.048,63.206,430.048,80.3Zm-60.6,45.18-1.819,19.062-20.153-.873,1.382-18.407Z" transform="translate(1.22 74.66)" fill="#2ba58e"/>
  </g>
</svg>
