<svg xmlns="http://www.w3.org/2000/svg" width="31.184" height="18"><g transform="translate(226.592 -2080)"><path data-name="Interseção 2" d="M-211 2082a15.985 15.985 0 0 0-13.231 7 16 16 0 0 0 26.462 0 15.985 15.985 0 0 0-13.231-7" fill="#2BA58E"/><path data-name="Interseção 2" d="M-211 2082a15.985 15.985 0 0 0-13.231 7 16 16 0 0 0 26.462 0 15.985 15.985 0 0 0-13.231-7m0-2a17.991 17.991 0 0 1 15.592 9 18.006 18.006 0 0 1-31.184 0 17.991 17.991 0 0 1 15.592-9Z" fill="#fff"/><circle data-name="Elipse 11" cx="5" cy="5" r="5" transform="translate(-216 2084)" fill="#fff"/></g></svg>