<svg xmlns="http://www.w3.org/2000/svg" xmlns:xlink="http://www.w3.org/1999/xlink" width="1920" height="1601" viewBox="0 0 1920 1601">
  <defs>
    <clipPath id="clip-path">
      <rect id="Retângulo_232" data-name="Retângulo 232" width="1920" height="1601" transform="translate(-4321 2833)" fill="#fff" stroke="#707070" stroke-width="1"/>
    </clipPath>
    <clipPath id="clip-path-2">
      <rect id="Retângulo_111" data-name="Retângulo 111" width="1920" height="950" transform="translate(0 1049)" fill="#fc9e19"/>
    </clipPath>
    <filter id="Caminho_173" x="-1606.868" y="1304.132" width="5133.735" height="5123.735" filterUnits="userSpaceOnUse">
      <feOffset input="SourceAlpha"/>
      <feGaussianBlur stdDeviation="15" result="blur"/>
      <feFlood flood-opacity="0.302"/>
      <feComposite operator="in" in2="blur"/>
      <feComposite in="SourceGraphic"/>
    </filter>
  </defs>
  <g id="Grupo_de_máscara_22" data-name="Grupo de máscara 22" transform="translate(4321 -2833)" clip-path="url(#clip-path)">
    <g id="Grupo_237" data-name="Grupo 237" transform="translate(-4320 1764.273)" opacity="0.5">
      <path id="Caminho_231" data-name="Caminho 231" d="M-35.152,1532.813s140.6-383.776,498.721-383.776,485.517,313.7,927.138,313.7,571.223-253.626,571.223-253.626v1608.53H-35.152Z" transform="translate(0 -15)" fill="rgba(0,0,0,0.15)" opacity="0.5"/>
      <path id="Caminho_230" data-name="Caminho 230" d="M-60.391,1885.2S67.5,1394.756,398.746,1394.756s549.914,298.268,932.646,298.268,610.762-298.268,610.762-298.268V2684.275h-1985Z" transform="translate(0 139.96)" fill="rgba(0,0,0,0.15)" opacity="0.5"/>
      <path id="Caminho_229" data-name="Caminho 229" d="M-41.743,2145.272s206.152-357.228,533.536-357.228S1205.147,2027.8,1492.449,2027.8s517.815-400.257,517.815-400.257l-8.792,1033.519H-41.743Z" transform="translate(6.591 107.634)" fill="rgba(0,0,0,0.15)" opacity="0.5"/>
      <path id="Caminho_228" data-name="Caminho 228" d="M0,2142.481S75.659,2225.7,371.8,2225.7s741.087-380.016,1088.362-315.238,469.821,221.928,469.821,221.928V2432.52H-26.364Z" transform="translate(0 409.267)" fill="rgba(0,0,0,0.05)"/>
    </g>
    <g id="Grupo_de_máscara_3" data-name="Grupo de máscara 3" transform="translate(-4321 2435)" clip-path="url(#clip-path-2)">
      <g transform="matrix(1, 0, 0, 1, 0, 398)" filter="url(#Caminho_173)">
        <path id="Caminho_173-2" data-name="Caminho 173" d="M2521.868,10c1392.789,0,2521.868,1119.079,2521.868,2511.868S3914.657,5043.735,2521.868,5043.735,0,3914.657,0,2521.868,1129.079,10,2521.868,10Z" transform="translate(-1561.87 1339.13)" fill="#0a375c"/>
      </g>
    </g>
  </g>
</svg>
