<?xml version="1.0" encoding="utf-8"?>
<!-- Generator: Adobe Illustrator 25.4.6, SVG Export Plug-In . SVG Version: 6.00 Build 0)  -->
<svg version="1.1" id="Camada_2_00000106140850714951024340000007399148865673211529_"
	 xmlns="http://www.w3.org/2000/svg" xmlns:xlink="http://www.w3.org/1999/xlink" x="0px" y="0px" viewBox="0 0 16 16"
	 style="enable-background:new 0 0 16 16;" xml:space="preserve">
<style type="text/css">
	.st0{fill:none;stroke:#E0A43C;stroke-width:0.35;stroke-linecap:round;stroke-linejoin:round;stroke-miterlimit:10;}
	.st1{fill:none;stroke:#E0A43C;stroke-width:0.35;stroke-linecap:round;stroke-miterlimit:10;}
	.st2{fill:#998C71;}
	.st3{fill:#856124;}
	.st4{fill:#E0A43C;}
	.st5{fill:#7D5B3B;}
</style>
<g>
	<path class="st0" d="M11.9,11.7l0.8-0.1c0,0-0.9,2.1-0.9,3.6"/>
	<path class="st1" d="M11.1,15.2c0,0,0-1.6,0.9-1.6"/>
	<path class="st1" d="M12,13.6c0,0,0.5,0.2,0.4,1.6"/>
</g>
<g>
	<path class="st1" d="M8.5,13.3c0,0-0.8,0.8-0.8,2.1"/>
	<path class="st1" d="M7.3,14.8c0,0,0-1.2,0.9-1c0,0,0.5,0.1,0.3,0.7c-0.2,0.6-0.1,0.7,0.2,0.7"/>
</g>
<path class="st2" d="M2.5,8.5C2.3,8.5,2.1,8.2,2.3,8C2.7,7.2,3.6,5.8,5,5.8c1.7,0,2.1,0.7,2.1,0.7s-0.5-1,1.7-2S11,2.4,11,1.3
	s0.6-0.5,0.5,0.3l0.3-0.8c0,0,0.5-0.2,0.9-0.1C13.3,0.8,13.4,1,13.4,1l-1,0.8c0,0,0.6-0.2,0.9,0.2c0,0-1.4,0.3-1.4,1.7
	s1.6,2.5,1.6,5.3c0,2.7-3.6,6.4-7.4,3.6C4.3,11,4,8.9,2.5,8.5z"/>
<g>
	<path class="st3" d="M0.7,8c0,0,0.3,0.3,1,0.5c0.6,0.2,2.4,0.6,2.7-0.2H4.1L2.6,8L2.1,7.7L0.7,8z"/>
	<path class="st4" d="M4.4,8.3c-0.8,0-1-0.7-1-0.7C1.1,7.3,0.7,8,0.7,8s1.5,0.4,2.5,0.4C4.2,8.5,4.4,8.3,4.4,8.3z"/>
</g>
<ellipse transform="matrix(0.5702 -0.8215 0.8215 0.5702 -3.9122 6.5554)" cx="4.3" cy="7" rx="0.7" ry="0.2"/>
<path class="st5" d="M12.8,6c-0.3,2.9-1.8,3.6-3,3.7c-0.8,0.1-1.5,0.5-2,1.1c-0.7,0.9-1.8,0.9-2.5,0.9C5.5,12,5.7,12.3,6,12.5
	c3.9,2.9,7.3-0.2,7.5-3.5C13.6,7.9,13.2,6.8,12.8,6z"/>
</svg>
