<svg xmlns="http://www.w3.org/2000/svg" width="240" height="240.006" viewBox="0 0 240 240.006">
  <g id="Grupo_55" data-name="Grupo 55" transform="translate(-417.158 -365.166)">
    <rect id="Retângulo_107" data-name="Retângulo 107" width="240" height="240.006" transform="translate(417.158 365.166)" fill="#dd5020"/>
    <g id="Grupo_54" data-name="Grupo 54" transform="translate(437.29 382.153)">
      <g id="Grupo_46" data-name="Grupo 46" transform="translate(0 2.393)">
        <path id="Caminho_30" data-name="Caminho 30" d="M452.436,389.1c0-7.492-3.284-12.91-11.843-12.91-8.633,0-11.982,4.7-11.982,12.2v7.134c0,7.92,3.136,11.912,8.988,11.912a6.956,6.956,0,0,0,6.7-3.92h.07v10.411c0,2.925-1.143,5-4.066,5s-3.994-1.714-3.994-4.71V411h-7.42v2.568c0,7.132,2.57,12.125,11.56,12.125,8.556,0,11.984-5.492,11.984-13.055Zm-8.064,7.419c-.144,2.709-1.283,4.423-3.85,4.423-2.779,0-3.853-1.714-3.853-4.852v-8.417c0-3.068,1.139-4.85,3.924-4.85,2.711,0,3.78,1.855,3.78,4.85Z" transform="translate(-428.61 -376.19)" fill="#fff"/>
      </g>
      <g id="Grupo_47" data-name="Grupo 47" transform="translate(40.261 72.382)">
        <path id="Caminho_31" data-name="Caminho 31" d="M572.428,484.382,543.9,467.919V434.978a1.948,1.948,0,0,0-.972-1.686l-29.5-17.031a1.961,1.961,0,0,0-1.946,0l-29.5,17.031a1.942,1.942,0,0,0-.974,1.686v32.941l-28.526,16.463a1.952,1.952,0,0,0-.972,1.686v34.068a1.95,1.95,0,0,0,.972,1.688l29.5,17.028a1.949,1.949,0,0,0,1.946,0l28.525-16.467,28.525,16.467a1.97,1.97,0,0,0,.972.26,1.95,1.95,0,0,0,.974-.26l29.5-17.028a1.944,1.944,0,0,0,.972-1.688V486.068a1.948,1.948,0,0,0-.972-1.686m-61.919,32.382L486.847,503.1l23.662-13.663Zm27.549-47.722L514.4,482.7v-27.32ZM510.509,482.7l-23.659-13.658,23.659-13.663Zm5.842,3.372,25.6-14.781,25.61,14.779-25.61,14.788Zm23.655-20.4-23.655-13.663,23.655-13.658Zm-31.443-13.663L484.9,465.671V438.35Zm-27.552,81.785L455.4,519.012V489.44l25.606,14.788Zm3.892,0V506.475l23.66,13.661Zm84.607-14.781L543.9,533.793V504.228L569.51,489.44Z" transform="translate(-451.512 -416.003)" fill="#fff"/>
      </g>
      <g id="Grupo_48" data-name="Grupo 48" transform="translate(36.504)">
        <path id="Caminho_32" data-name="Caminho 32" d="M449.375,376.823h3.145v18.708h-3.145Z" transform="translate(-449.375 -373.318)" fill="#fff"/>
        <path id="Caminho_33" data-name="Caminho 33" d="M454.614,383.776v11.755h-2.649V376.823h3.091l3.393,10.734V376.823h2.621v18.708h-2.76Z" transform="translate(-447.412 -373.318)" fill="#fff"/>
        <path id="Caminho_34" data-name="Caminho 34" d="M467.336,381.844v8.665c0,2.871-1.187,5.023-4.551,5.023h-4.856V376.823h4.856C466.149,376.823,467.336,378.947,467.336,381.844ZM462.4,392.965c1.3,0,1.793-.772,1.793-1.9v-9.8a1.639,1.639,0,0,0-1.793-1.876h-1.324v13.575Z" transform="translate(-442.891 -373.318)" fill="#fff"/>
        <path id="Caminho_35" data-name="Caminho 35" d="M473.2,378.334v14.157c0,2.9-1.243,4.773-4.442,4.773-3.31,0-4.69-1.878-4.69-4.773V378.334h3.145v14.459c0,1.1.441,1.849,1.545,1.849s1.545-.745,1.545-1.849V378.334Zm-1.932-1.326-4.938.635v-1.765l4.938-1.049Z" transform="translate(-438.241 -374.829)" fill="#fff"/>
      </g>
      <g id="Grupo_49" data-name="Grupo 49" transform="translate(72.676 3.284)">
        <path id="Caminho_36" data-name="Caminho 36" d="M469.951,391.6v-2.51h2.925v2.567c0,1.048.469,1.654,1.545,1.654.993,0,1.435-.661,1.435-1.654v-.717a3.377,3.377,0,0,0-1.408-2.649l-1.848-1.849c-1.795-1.767-2.621-2.843-2.621-4.994v-.635c0-2.317,1.352-4.112,4.414-4.112,3.145,0,4.386,1.547,4.386,4.249v1.519H475.91v-1.628c0-1.076-.5-1.6-1.489-1.6a1.382,1.382,0,0,0-1.491,1.545v.387c0,1.048.58,1.656,1.491,2.538l2.015,1.987c1.709,1.739,2.537,2.786,2.537,4.857v.911c0,2.567-1.38,4.388-4.579,4.388S469.951,394.053,469.951,391.6Z" transform="translate(-469.951 -376.697)" fill="#fff"/>
      </g>
      <g id="Grupo_50" data-name="Grupo 50" transform="translate(81.891 3.505)">
        <path id="Caminho_37" data-name="Caminho 37" d="M475.193,376.823h8.359v2.567h-2.593v16.142h-3.173V379.39h-2.593Z" transform="translate(-475.193 -376.823)" fill="#fff"/>
      </g>
      <g id="Grupo_51" data-name="Grupo 51" transform="translate(91.3 3.505)">
        <path id="Caminho_38" data-name="Caminho 38" d="M483.69,386.949v8.582h-3.145V376.823h4.579c3.173,0,4.332,1.573,4.332,4.193v2.4c0,2.015-.717,3.2-2.51,3.614l3.006,8.5h-3.31Zm0-7.559v5.822h1.048a1.364,1.364,0,0,0,1.547-1.545v-2.76c0-1.021-.471-1.517-1.547-1.517Z" transform="translate(-480.545 -376.823)" fill="#fff"/>
      </g>
      <g id="Grupo_52" data-name="Grupo 52" transform="translate(100.817 0.415)">
        <path id="Caminho_39" data-name="Caminho 39" d="M485.959,376.823h3.147v18.708h-3.147Z" transform="translate(-485.959 -373.733)" fill="#fff"/>
        <path id="Caminho_40" data-name="Caminho 40" d="M488.267,395.531l3.53-18.708h3.588l3.558,18.708h-3.228l-.58-3.421H491.8l-.55,3.421Zm3.945-5.933h2.51l-1.243-7.5h-.026Z" transform="translate(-484.21 -373.733)" fill="#fff"/>
        <path id="Caminho_41" data-name="Caminho 41" d="M498.129,386l-1.6,4.223h-1.765l.385-4.47h2.98Z" transform="translate(-479.285 -366.963)" fill="#fff"/>
        <path id="Caminho_42" data-name="Caminho 42" d="M498.876,376.823h3.145v18.708h-3.145Z" transform="translate(-476.169 -373.733)" fill="#fff"/>
        <path id="Caminho_43" data-name="Caminho 43" d="M504.114,383.776v11.755h-2.649V376.823h3.09l3.393,10.734V376.823h2.621v18.708h-2.758Z" transform="translate(-474.206 -373.733)" fill="#fff"/>
        <path id="Caminho_44" data-name="Caminho 44" d="M507.429,390.8v-9.05c0-2.925,1.435-5.051,4.745-5.051,3.338,0,4.773,2.125,4.773,5.051v9.05c0,2.9-1.435,5.051-4.773,5.051C508.864,395.848,507.429,393.695,507.429,390.8Zm6.373.5V381.25c0-1.13-.5-1.93-1.628-1.93-1.1,0-1.6.8-1.6,1.93V391.3c0,1.13.5,1.932,1.6,1.932C513.306,393.227,513.8,392.426,513.8,391.3Z" transform="translate(-469.686 -373.828)" fill="#fff"/>
        <path id="Caminho_45" data-name="Caminho 45" d="M523.9,376.823l-3.558,18.708h-3.421l-3.56-18.708h3.2l2.152,13.051h.028l2.206-13.051Z" transform="translate(-465.189 -373.733)" fill="#fff"/>
        <path id="Caminho_46" data-name="Caminho 46" d="M519.576,395.531l3.532-18.708h3.586l3.558,18.708h-3.228l-.578-3.421h-3.338l-.552,3.421Zm3.947-5.933h2.509l-1.241-7.5h-.028Z" transform="translate(-460.479 -373.733)" fill="#fff"/>
        <path id="Caminho_47" data-name="Caminho 47" d="M529.49,397.531c.882-.028,1.021-.221,1.021-.441,0-.193-.165-.3-.441-.3h-.139v-1.021c-2.676-.33-3.78-2.345-3.78-4.966v-9.05c0-2.925,1.38-5.051,4.69-5.051,3.475,0,4.442,1.932,4.442,4.69V383.6h-2.869v-2.456c0-1.158-.387-1.819-1.517-1.819s-1.6.8-1.6,1.93V391.3c0,1.13.469,1.932,1.6,1.932s1.517-.719,1.517-1.821v-3.449h2.869v3.228c0,2.621-1.049,4.553-4.166,4.664v.248c.745.109,1.158.387,1.158.993,0,.856-.8,1.326-2.786,1.326Z" transform="translate(-455.494 -373.828)" fill="#fff"/>
        <path id="Caminho_48" data-name="Caminho 48" d="M531.8,396.864l3.532-18.708h3.586l3.558,18.708H539.25l-.578-3.421h-3.338l-.552,3.421Zm2.456-19.454c.055-1.3.552-2.345,1.93-2.345.8,0,1.463.469,1.876.469a.371.371,0,0,0,.387-.415H540c-.054,1.3-.552,2.345-1.932,2.345-.8,0-1.461-.468-1.876-.468a.369.369,0,0,0-.385.413Zm1.489,13.521h2.512l-1.243-7.5h-.026Z" transform="translate(-451.212 -375.065)" fill="#fff"/>
        <path id="Caminho_49" data-name="Caminho 49" d="M538.378,390.8v-9.05c0-2.925,1.434-5.051,4.745-5.051,3.338,0,4.773,2.125,4.773,5.051v9.05c0,2.9-1.435,5.051-4.773,5.051C539.812,395.848,538.378,393.695,538.378,390.8Zm6.373.5V381.25c0-1.13-.5-1.93-1.628-1.93-1.1,0-1.6.8-1.6,1.93V391.3c0,1.13.5,1.932,1.6,1.932C544.255,393.227,544.751,392.426,544.751,391.3Z" transform="translate(-446.228 -373.828)" fill="#fff"/>
      </g>
      <g id="Grupo_53" data-name="Grupo 53" transform="translate(36.504 32.116)">
        <path id="Caminho_50" data-name="Caminho 50" d="M449.375,393.224h7.5v2.567h-4.36v5.353h3.117v2.537H452.52v5.685h4.36v2.567h-7.5Z" transform="translate(-449.375 -393.003)" fill="#fff"/>
        <path id="Caminho_51" data-name="Caminho 51" d="M456.077,393.224h3.145v18.708h-3.145Z" transform="translate(-444.295 -393.003)" fill="#fff"/>
        <path id="Caminho_52" data-name="Caminho 52" d="M461.472,400.177v11.755h-2.649V393.224h3.09l3.393,10.734V393.224h2.621v18.708h-2.758Z" transform="translate(-442.214 -393.003)" fill="#fff"/>
        <path id="Caminho_53" data-name="Caminho 53" d="M464.944,393.224h7.366v2.567h-4.221v5.353h3.145v2.537h-3.145v8.252h-3.145Z" transform="translate(-437.574 -393.003)" fill="#fff"/>
        <path id="Caminho_54" data-name="Caminho 54" d="M472.985,403.35v8.582H469.84V393.224h4.579c3.173,0,4.333,1.573,4.333,4.193v2.4c0,2.013-.719,3.2-2.512,3.613l3.008,8.5h-3.31Zm0-7.559v5.821h1.05a1.361,1.361,0,0,0,1.545-1.545v-2.758c0-1.021-.469-1.517-1.545-1.517Z" transform="translate(-433.863 -393.003)" fill="#fff"/>
        <path id="Caminho_55" data-name="Caminho 55" d="M475.506,411.932l3.532-18.708h3.586l3.56,18.708h-3.229l-.578-3.421h-3.338l-.552,3.421ZM479.451,406h2.512l-1.241-7.5h-.03Z" transform="translate(-429.569 -393.003)" fill="#fff"/>
        <path id="Caminho_56" data-name="Caminho 56" d="M482.239,393.224h7.5v2.567h-4.36v5.353H488.5v2.537h-3.119v5.685h4.36v2.567h-7.5Z" transform="translate(-424.465 -393.003)" fill="#fff"/>
        <path id="Caminho_57" data-name="Caminho 57" d="M487.277,408v-2.51H490.2v2.565c0,1.049.469,1.658,1.545,1.658.993,0,1.435-.663,1.435-1.658v-.717a3.376,3.376,0,0,0-1.406-2.647l-1.848-1.849c-1.795-1.765-2.623-2.843-2.623-4.994v-.635c0-2.317,1.354-4.112,4.414-4.112,3.145,0,4.388,1.545,4.388,4.251v1.517h-2.871v-1.628c0-1.076-.5-1.6-1.489-1.6a1.38,1.38,0,0,0-1.489,1.545v.387c0,1.048.578,1.656,1.489,2.539l2.015,1.986c1.71,1.739,2.537,2.788,2.537,4.857v.911c0,2.567-1.378,4.386-4.579,4.386S487.277,410.456,487.277,408Z" transform="translate(-420.647 -393.098)" fill="#fff"/>
        <path id="Caminho_58" data-name="Caminho 58" d="M493.052,393.224h8.361v2.567h-2.595v16.142h-3.173V395.791h-2.593Z" transform="translate(-416.27 -393.003)" fill="#fff"/>
        <path id="Caminho_59" data-name="Caminho 59" d="M501.706,403.35v8.582h-3.145V393.224h4.579c3.173,0,4.332,1.573,4.332,4.193v2.4c0,2.013-.717,3.2-2.51,3.613l3.006,8.5h-3.31Zm0-7.559v5.821h1.049a1.36,1.36,0,0,0,1.544-1.545v-2.758c0-1.021-.468-1.517-1.544-1.517Z" transform="translate(-412.094 -393.003)" fill="#fff"/>
        <path id="Caminho_60" data-name="Caminho 60" d="M513.642,393.224v14.155c0,2.9-1.241,4.773-4.442,4.773-3.31,0-4.69-1.876-4.69-4.773V393.224h3.145v14.459c0,1.1.443,1.848,1.545,1.848s1.545-.745,1.545-1.848V393.224Z" transform="translate(-407.586 -393.003)" fill="#fff"/>
        <path id="Caminho_61" data-name="Caminho 61" d="M510.426,393.224h8.359v2.567h-2.593v16.142h-3.173V395.791h-2.593Z" transform="translate(-403.101 -393.003)" fill="#fff"/>
        <path id="Caminho_62" data-name="Caminho 62" d="M525.066,393.224v14.155c0,2.9-1.241,4.773-4.442,4.773-3.309,0-4.688-1.876-4.688-4.773V393.224h3.145v14.459c0,1.1.441,1.848,1.543,1.848s1.545-.745,1.545-1.848V393.224Z" transform="translate(-398.925 -393.003)" fill="#fff"/>
        <path id="Caminho_63" data-name="Caminho 63" d="M525.2,403.35v8.582h-3.145V393.224h4.581c3.171,0,4.33,1.573,4.33,4.193v2.4c0,2.013-.717,3.2-2.51,3.613l3.008,8.5h-3.31Zm0-7.559v5.821h1.05a1.361,1.361,0,0,0,1.545-1.545v-2.758c0-1.021-.469-1.517-1.545-1.517Z" transform="translate(-394.287 -393.003)" fill="#fff"/>
        <path id="Caminho_64" data-name="Caminho 64" d="M527.737,411.932l3.532-18.708h3.586l3.558,18.708h-3.228l-.578-3.421h-3.339l-.552,3.421ZM531.682,406h2.51l-1.241-7.5h-.028Z" transform="translate(-389.98 -393.003)" fill="#fff"/>
      </g>
    </g>
  </g>
</svg>