<svg xmlns="http://www.w3.org/2000/svg" width="241" height="241.01" viewBox="0 0 241 241.01">
  <g id="Grupo_148" data-name="Grupo 148" transform="translate(-455.5 -3349.502)">
    <rect id="Ret창ngulo_106" data-name="Ret창ngulo 106" width="240" height="240.011" transform="translate(456 3350.002)" fill="#a81122" stroke="#a81122" stroke-width="1"/>
    <path id="Uni찾o_1" data-name="Uni찾o 1" d="M85.775,189.282H82.906L30.829,174.865V90.239l4.623-3.648v85.033l47.673,13.317h4.868l47.885-15.472V86.591l4.619,3.648v82.537l-4.243,1.249L88.209,189.282Zm69.1-23.425h0V94.235h10.2v71.622l-5.091,17.821ZM87.848,111.918l43.376-25.045v80.489L87.848,180.4ZM40.083,167.371v-80.5l43.1,24.886v68.62Zm114.792-77.13v-5.5a5.1,5.1,0,1,1,10.2,0v5.5ZM49,52.943V51.611c-2.635-.464-3.767-2.4-3.767-5.07v-9.5c0-3.07,1.508-5.3,4.984-5.3,3.5,0,5.009,2.23,5.009,5.3v9.5c0,2.144-.753,3.823-2.432,4.635l2.432.464V54.1ZM48.533,36.52V47.237c0,1.16.523,2.028,1.682,2.028,1.187,0,1.708-.868,1.708-2.028V36.52c0-1.188-.521-2.028-1.708-2.028C49.056,34.493,48.533,35.332,48.533,36.52Zm8.807,10.312V31.972h3.3V47.151c0,1.158.463,1.939,1.621,1.939s1.623-.781,1.623-1.939V31.972H66.93V46.832c0,3.042-1.306,5.011-4.666,5.011C58.79,51.844,57.341,49.874,57.341,46.832ZM14.364,51.706V43.845H0v-5L14.076,3.253h8V37.488H25.37v6.358H22.081v7.861ZM7.146,37.488h7.361V17.548h-.074ZM131.991,51.611V31.972h7.88v2.695h-4.578v5.62h3.274V42.95h-3.274v5.969h4.578v2.693Zm-11.992,0V31.972h5.1c3.533,0,4.779,2.23,4.779,5.271v9.1c0,3.013-1.246,5.271-4.779,5.271Zm3.3-2.693h1.391c1.361,0,1.882-.812,1.882-2V36.636a1.72,1.72,0,0,0-1.882-1.97H123.3Zm-8.285,2.693-.609-3.593h-3.5l-.579,3.593H107.2l3.707-19.64h3.766l3.737,19.64Zm-3.679-6.227h2.635l-1.3-7.879h-.031ZM95.724,51.611V31.972h5.1c3.534,0,4.779,2.23,4.779,5.271v9.1c0,3.013-1.245,5.271-4.779,5.271Zm3.3-2.693h1.391c1.361,0,1.882-.812,1.882-2V36.636a1.72,1.72,0,0,0-1.882-1.97H99.026Zm-8.748,2.693V31.972h3.3v19.64Zm-8.98,0V31.972h3.3V48.919h3.939v2.693Zm-4.982,0-.609-3.593H72.2l-.579,3.593h-3.13L72.2,31.972h3.765L79.7,51.611Zm-3.679-6.227h2.637l-1.3-7.879h-.03Zm32.281-20.5c.927-.029,1.072-.232,1.072-.464,0-.2-.173-.32-.464-.32h-.144v-1.07c-2.811-.348-3.969-2.462-3.969-5.213v-9.5c0-3.07,1.448-5.3,4.925-5.3,3.649,0,4.662,2.028,4.662,4.925v2.317h-3.011V7.674c0-1.217-.4-1.912-1.593-1.912s-1.68.842-1.68,2.03V18.335c0,1.187.492,2.028,1.68,2.028s1.593-.753,1.593-1.913V14.831H111v3.388c0,2.751-1.1,4.779-4.371,4.9v.261c.781.116,1.214.406,1.214,1.043,0,.9-.838,1.391-2.925,1.391Zm19.062-7.067v-9.5c0-3.07,1.507-5.3,4.981-5.3,3.5,0,5.01,2.232,5.01,5.3v9.5c0,3.041-1.507,5.3-5.01,5.3C125.486,23.114,123.979,20.856,123.979,17.815Zm3.3-10.022V18.335c0,1.187.521,2.028,1.679,2.028,1.188,0,1.708-.841,1.708-2.028V7.792c0-1.188-.52-2.03-1.708-2.03C127.8,5.763,127.282,6.6,127.282,7.792ZM78.846,17.815v-9.5c0-3.07,1.45-5.3,4.925-5.3,3.65,0,4.665,2.028,4.665,4.925v2.317H85.422V7.674c0-1.217-.406-1.912-1.592-1.912s-1.681.842-1.681,2.03V18.335c0,1.187.492,2.028,1.681,2.028s1.592-.753,1.592-1.913V14.831h3.014v3.388c0,2.81-1.158,4.9-4.665,4.9C80.3,23.114,78.846,20.856,78.846,17.815ZM67.175,18.1V3.244h3.3V18.421c0,1.16.464,1.941,1.624,1.941s1.623-.781,1.623-1.941V3.244h3.039V18.1c0,3.042-1.3,5.011-4.662,5.011C68.623,23.114,67.175,21.145,67.175,18.1Zm82.18,4.781V3.244h7.88V5.937h-4.578v5.62h3.272v2.665h-3.272v5.967h4.578v2.695Zm-11.327,0V3.244h5.1c3.534,0,4.781,2.23,4.781,5.272V17.61c0,3.013-1.247,5.273-4.781,5.273Zm3.3-2.695h1.394c1.361,0,1.882-.812,1.882-2V7.907a1.72,1.72,0,0,0-1.882-1.969h-1.394Zm-21.667,2.695-.607-3.593h-3.506l-.579,3.593h-3.128l3.707-19.64h3.767l3.737,19.64Zm-3.679-6.229h2.637l-1.3-7.879h-.029ZM97.1,22.883l-.608-3.593h-3.5L92.4,22.883h-3.13l3.709-19.64h3.765l3.737,19.64Zm-3.678-6.229h2.635l-1.3-7.879h-.03ZM55.153,22.883V3.244h5.1c3.534,0,4.781,2.23,4.781,5.272V17.61c0,3.013-1.247,5.273-4.781,5.273Zm3.3-2.695h1.39c1.361,0,1.884-.812,1.884-2V7.907a1.721,1.721,0,0,0-1.884-1.969h-1.39ZM45.274,22.883V3.244h7.88V5.937H48.576v5.62h3.275v2.665H48.576v5.967h4.578v2.695ZM116.447,2.026a.389.389,0,0,0-.406.435h-1.624C114.478,1.1,115,0,116.447,0c.84,0,1.535.491,1.97.491a.388.388,0,0,0,.4-.435h1.621c-.057,1.362-.58,2.462-2.026,2.462C117.576,2.519,116.88,2.026,116.447,2.026Z" transform="translate(479.278 3366.889)" fill="#fff"/>
  </g>
</svg>
