<svg xmlns="http://www.w3.org/2000/svg" width="241.802" height="241.813" viewBox="0 0 241.802 241.813">
  <g id="Grupo_90" data-name="Grupo 90" transform="translate(-723.88 -519.271)">
    <rect id="Retângulo_110" data-name="Retângulo 110" width="241.802" height="241.813" transform="translate(723.88 519.271)" fill="#0e3756"/>
    <g id="Grupo_84" data-name="Grupo 84" transform="translate(745.969 539.536)">
      <path id="Caminho_140" data-name="Caminho 140" d="M750.445,530.713v48.753h-8.2v-37.32h-.073l-5.753,5.967h-.071v-8.555l7.552-8.845Z" transform="translate(-736.352 -530.713)" fill="#fff"/>
    </g>
    <g id="Grupo_85" data-name="Grupo 85" transform="translate(763.801 539.536)">
      <path id="Caminho_141" data-name="Caminho 141" d="M746.42,530.713h20.567v7.55l-10.715,41.2h-8.129L759.074,537.4H746.42Z" transform="translate(-746.42 -530.713)" fill="#fff"/>
    </g>
    <g id="Grupo_87" data-name="Grupo 87" transform="translate(786.182 613.449)">
      <g id="Grupo_86" data-name="Grupo 86">
        <path id="Caminho_142" data-name="Caminho 142" d="M879.113,624.92a31.531,31.531,0,0,0-30.338-31.47,31.491,31.491,0,0,0-59.388,0,31.472,31.472,0,0,0-18.179,56.3,31.473,31.473,0,0,0,48.026,34.718,31.475,31.475,0,0,0,47.773-34.753,31.458,31.458,0,0,0,12.106-24.791m-34.879-20.981a25.167,25.167,0,0,1-21.445,24.847,25.6,25.6,0,0,1-.324-3.866,25.163,25.163,0,0,1,21.442-24.847,25.015,25.015,0,0,1,.328,3.866M819.2,676.3a25.08,25.08,0,0,1-.232-35.828A25.084,25.084,0,0,1,819.2,676.3m-24.939-76.226A25.173,25.173,0,0,1,815.7,624.92a24.919,24.919,0,0,1-.331,3.866,25.169,25.169,0,0,1-21.443-24.847,24.875,24.875,0,0,1,.331-3.87m18.751,36.1a25.054,25.054,0,0,1-34.016,11.064,25.054,25.054,0,0,1,34.016-11.064M825.072,636a25.065,25.065,0,0,1,34.185,11.2A25.065,25.065,0,0,1,825.072,636m-5.992-57.215a25.177,25.177,0,0,1,23.057,15.125,31.6,31.6,0,0,0-23.057,17.7,31.572,31.572,0,0,0-23.053-17.7,25.18,25.18,0,0,1,23.053-15.125M765.395,624.92a25.187,25.187,0,0,1,22.456-25.007,32.083,32.083,0,0,0-.264,4.026A31.416,31.416,0,0,0,797.876,627.2,31.56,31.56,0,0,0,773.73,643.57a25.074,25.074,0,0,1-8.335-18.65m10.912,33.568a24.883,24.883,0,0,1,.549-5.211,31.444,31.444,0,0,0,28.9-.79,31.325,31.325,0,0,0,8.358,27.7,25.1,25.1,0,0,1-37.807-21.695m85.553-.209A25.114,25.114,0,0,1,824.3,680.129a31.353,31.353,0,0,0,8.062-27.667,31.408,31.408,0,0,0,28.985.79,24.938,24.938,0,0,1,.51,5.028m-21.379-31.261a31.349,31.349,0,0,0,9.832-27.1,25.109,25.109,0,0,1,14.2,43.588,31.56,31.56,0,0,0-24.027-16.484" transform="translate(-759.056 -572.445)" fill="#fff"/>
      </g>
    </g>
    <g id="Grupo_88" data-name="Grupo 88" transform="translate(795.025 539.246)">
      <path id="Caminho_143" data-name="Caminho 143" d="M764.049,530.681h4.926c3.353,0,4.577,1.661,4.577,4.43v4.167c0,2.772-1.224,4.462-4.577,4.462h-1.6v6.7h-3.323Zm3.323,2.71v7.782H768.6a1.428,1.428,0,0,0,1.633-1.631v-4.548c0-1.077-.5-1.6-1.633-1.6Z" transform="translate(-764.049 -530.447)" fill="#fff"/>
      <path id="Caminho_144" data-name="Caminho 144" d="M769.678,550.443l3.73-19.762h3.79l3.76,19.762h-3.411l-.613-3.615h-3.526l-.583,3.615Zm4.168-6.266H776.5l-1.311-7.93h-.03Z" transform="translate(-759.708 -530.447)" fill="#fff"/>
      <path id="Caminho_145" data-name="Caminho 145" d="M779.732,541.379v9.065h-3.323V530.681h4.839c3.351,0,4.577,1.661,4.577,4.43v2.536c0,2.127-.758,3.381-2.653,3.819l3.176,8.978h-3.5Zm0-7.988v6.151h1.107a1.44,1.44,0,0,0,1.633-1.633v-2.915c0-1.077-.5-1.6-1.633-1.6Z" transform="translate(-754.518 -530.447)" fill="#fff"/>
      <path id="Caminho_146" data-name="Caminho 146" d="M782.335,545.444v-9.562c0-3.089,1.456-5.333,4.954-5.333,3.672,0,4.692,2.04,4.692,4.956v2.331h-3.032v-2.595c0-1.222-.406-1.923-1.6-1.923s-1.69.847-1.69,2.042v10.609c0,1.2.5,2.04,1.69,2.04s1.6-.76,1.6-1.925v-3.642h3.032v3.411c0,2.825-1.165,4.926-4.692,4.926C783.791,550.779,782.335,548.5,782.335,545.444Z" transform="translate(-749.948 -530.549)" fill="#fff"/>
      <path id="Caminho_147" data-name="Caminho 147" d="M788.391,530.681h7.928v2.71h-4.6v5.655h3.294v2.682h-3.294v6h4.6v2.712h-7.928Z" transform="translate(-745.278 -530.447)" fill="#fff"/>
      <path id="Caminho_148" data-name="Caminho 148" d="M796.783,541.379v9.065H793.46V530.681H798.3c3.353,0,4.577,1.661,4.577,4.43v2.536c0,2.127-.756,3.381-2.653,3.819l3.177,8.978h-3.5Zm0-7.988v6.151h1.107a1.441,1.441,0,0,0,1.633-1.633v-2.915c0-1.077-.5-1.6-1.633-1.6Z" transform="translate(-741.369 -530.447)" fill="#fff"/>
      <path id="Caminho_149" data-name="Caminho 149" d="M799.368,530.681h3.324v19.762h-3.324Z" transform="translate(-736.813 -530.447)" fill="#fff"/>
      <path id="Caminho_150" data-name="Caminho 150" d="M801.623,550.443l3.73-19.762h3.79l3.76,19.762h-3.411l-.609-3.615h-3.53l-.583,3.615Zm4.169-6.266h2.653l-1.314-7.93H807.1Z" transform="translate(-735.074 -530.447)" fill="#fff"/>
      <path id="Caminho_151" data-name="Caminho 151" d="M808.256,546.287v-2.65h3.089v2.71c0,1.107.5,1.748,1.633,1.748,1.048,0,1.514-.7,1.514-1.748v-.758a3.57,3.57,0,0,0-1.486-2.8l-1.952-1.954c-1.9-1.865-2.77-3-2.77-5.274v-.671c0-2.448,1.429-4.343,4.664-4.343,3.323,0,4.633,1.633,4.633,4.49v1.6h-3.031v-1.718c0-1.137-.524-1.69-1.573-1.69a1.456,1.456,0,0,0-1.574,1.629v.409c0,1.109.613,1.748,1.574,2.681l2.127,2.1c1.808,1.837,2.683,2.944,2.683,5.129v.962c0,2.711-1.459,4.637-4.84,4.637S808.256,548.882,808.256,546.287Z" transform="translate(-729.959 -530.549)" fill="#fff"/>
      <path id="Caminho_152" data-name="Caminho 152" d="M815.53,530.681h7.929v2.71h-4.607v5.655h3.3v2.682h-3.3v6h4.607v2.712H815.53Z" transform="translate(-724.35 -530.447)" fill="#fff"/>
      <path id="Caminho_153" data-name="Caminho 153" d="M831.052,537.619h-.087l-2.244,12.825h-1.544l-2.48-12.825h-.058v12.825H821.9V530.681h3.879l2.156,11.135h.03l1.923-11.135h4.2v19.762h-3.03Z" transform="translate(-719.439 -530.447)" fill="#fff"/>
      <path id="Caminho_154" data-name="Caminho 154" d="M829.438,530.681h7.928v2.71h-4.607v5.655h3.3v2.682h-3.3v6h4.607v2.712h-7.928Z" transform="translate(-713.625 -530.447)" fill="#fff"/>
      <path id="Caminho_155" data-name="Caminho 155" d="M834.507,530.681h3.323v19.762h-3.323Z" transform="translate(-709.716 -530.447)" fill="#fff"/>
      <path id="Caminho_156" data-name="Caminho 156" d="M837.041,545.444v-9.562c0-3.089,1.516-5.333,5.014-5.333,3.526,0,5.042,2.244,5.042,5.333v9.562c0,3.059-1.516,5.335-5.042,5.335C838.557,550.779,837.041,548.5,837.041,545.444Zm6.734.524V535.359c0-1.2-.524-2.042-1.72-2.042-1.165,0-1.691.847-1.691,2.042v10.609c0,1.2.526,2.04,1.691,2.04C843.251,548.009,843.775,547.164,843.775,545.969Z" transform="translate(-707.762 -530.549)" fill="#fff"/>
      <path id="Caminho_157" data-name="Caminho 157" d="M843.279,546.287v-2.65h3.089v2.71c0,1.107.5,1.748,1.631,1.748,1.05,0,1.518-.7,1.518-1.748v-.758a3.572,3.572,0,0,0-1.488-2.8l-1.954-1.954c-1.893-1.865-2.768-3-2.768-5.274v-.671c0-2.448,1.429-4.343,4.665-4.343,3.323,0,4.633,1.633,4.633,4.49v1.6h-3.032v-1.718c0-1.137-.524-1.69-1.575-1.69a1.455,1.455,0,0,0-1.571,1.629v.409c0,1.109.609,1.748,1.571,2.681l2.129,2.1c1.808,1.837,2.681,2.944,2.681,5.129v.962c0,2.711-1.456,4.637-4.837,4.637S843.279,548.882,843.279,546.287Z" transform="translate(-702.952 -530.549)" fill="#fff"/>
    </g>
    <g id="Grupo_89" data-name="Grupo 89" transform="translate(795.044 564.874)">
      <path id="Caminho_158" data-name="Caminho 158" d="M774.156,552.279v9.3c0,3.078-1.273,5.388-4.885,5.388H764.06V546.891h5.211C772.882,546.891,774.156,549.17,774.156,552.279Zm-5.3,11.93c1.392,0,1.923-.831,1.923-2.042v-10.51a1.758,1.758,0,0,0-1.923-2.014h-1.42v14.566Z" transform="translate(-764.06 -543.575)" fill="#fff"/>
      <path id="Caminho_159" data-name="Caminho 159" d="M770.661,546.891h8.053v2.752h-4.678v5.744h3.346v2.724h-3.346v6.1h4.678v2.752h-8.053Z" transform="translate(-758.97 -543.575)" fill="#fff"/>
      <path id="Caminho_160" data-name="Caminho 160" d="M777.6,546.891h3.374v20.071H777.6Z" transform="translate(-753.62 -543.575)" fill="#fff"/>
      <path id="Caminho_161" data-name="Caminho 161" d="M789.717,553.937h-.089l-2.279,13.025H785.78l-2.517-13.025H783.2v13.025h-2.782V546.891h3.937L786.55,558.2h.028l1.953-11.307H792.8v20.071h-3.078Z" transform="translate(-751.443 -543.575)" fill="#fff"/>
      <path id="Caminho_162" data-name="Caminho 162" d="M788.31,546.891h5c3.406,0,4.647,1.688,4.647,4.5v4.231c0,2.813-1.242,4.531-4.647,4.531h-1.628v6.808H788.31Zm3.376,2.752v7.9h1.243a1.449,1.449,0,0,0,1.656-1.658v-4.619c0-1.095-.5-1.628-1.656-1.628Z" transform="translate(-745.36 -543.575)" fill="#fff"/>
      <path id="Caminho_163" data-name="Caminho 163" d="M794.544,546.891h3.376v17.318h4.026v2.752h-7.4Z" transform="translate(-740.553 -543.575)" fill="#fff"/>
      <path id="Caminho_164" data-name="Caminho 164" d="M799.407,546.891h8.053v2.752h-4.679v5.744h3.346v2.724h-3.346v6.1h4.679v2.752h-8.053Z" transform="translate(-736.803 -543.575)" fill="#fff"/>
      <path id="Caminho_165" data-name="Caminho 165" d="M814.067,553.937h-.087L811.7,566.962h-1.569l-2.517-13.025h-.058v13.025h-2.784V546.891h3.937L810.9,558.2h.03l1.953-11.307h4.263v20.071h-3.08Z" transform="translate(-732.665 -543.575)" fill="#fff"/>
      <path id="Caminho_166" data-name="Caminho 166" d="M812.661,546.891h8.052v2.752h-4.679v5.744h3.348v2.724h-3.348v6.1h4.679v2.752h-8.052Z" transform="translate(-726.582 -543.575)" fill="#fff"/>
      <path id="Caminho_167" data-name="Caminho 167" d="M820.868,554.351v12.61h-2.843V546.891h3.316l3.641,11.516V546.891h2.813v20.071h-2.96Z" transform="translate(-722.445 -543.575)" fill="#fff"/>
      <path id="Caminho_168" data-name="Caminho 168" d="M824.227,546.891h8.967v2.752h-2.781v17.318h-3.406V549.643h-2.781Z" transform="translate(-717.663 -543.575)" fill="#fff"/>
      <path id="Caminho_169" data-name="Caminho 169" d="M829.691,566.962l3.79-20.071h3.847l3.819,20.071h-3.463l-.623-3.672h-3.579l-.593,3.672Zm4.233-6.364h2.694l-1.332-8.053h-.03Z" transform="translate(-713.449 -543.575)" fill="#fff"/>
      <path id="Caminho_170" data-name="Caminho 170" d="M840.342,569.107c.946-.03,1.094-.237,1.094-.473,0-.207-.177-.326-.473-.326h-.149v-1.095c-2.871-.356-4.054-2.517-4.054-5.329v-9.709c0-3.138,1.479-5.418,5.032-5.418,3.73,0,4.766,2.072,4.766,5.034v2.366h-3.078v-2.634c0-1.243-.416-1.954-1.628-1.954s-1.718.859-1.718,2.074v10.774c0,1.213.5,2.072,1.718,2.072s1.628-.77,1.628-1.953v-3.7h3.078V562.3c0,2.813-1.125,4.883-4.47,5v.267c.8.119,1.243.414,1.243,1.066,0,.917-.859,1.42-2.99,1.42Z" transform="translate(-707.997 -543.679)" fill="#fff"/>
      <path id="Caminho_171" data-name="Caminho 171" d="M842.844,568.405l3.788-20.071h3.849l3.817,20.071h-3.463l-.62-3.672h-3.583l-.593,3.672Zm2.634-20.869c.06-1.392.593-2.517,2.072-2.517.859,0,1.571.5,2.014.5a.4.4,0,0,0,.414-.443h1.658c-.06,1.39-.592,2.515-2.072,2.515-.859,0-1.569-.5-2.014-.5a.4.4,0,0,0-.413.443Zm1.6,14.506h2.694l-1.332-8.053h-.03Z" transform="translate(-703.306 -545.019)" fill="#fff"/>
      <path id="Caminho_172" data-name="Caminho 172" d="M849.913,561.884v-9.709c0-3.138,1.539-5.418,5.092-5.418,3.581,0,5.122,2.279,5.122,5.418v9.709c0,3.108-1.541,5.416-5.122,5.416C851.452,567.3,849.913,564.993,849.913,561.884Zm6.838.533V551.643c0-1.215-.531-2.074-1.746-2.074-1.185,0-1.716.859-1.716,2.074v10.774c0,1.213.531,2.072,1.716,2.072C856.22,564.49,856.751,563.631,856.751,562.417Z" transform="translate(-697.855 -543.679)" fill="#fff"/>
    </g>
  </g>
</svg>
