<svg xmlns="http://www.w3.org/2000/svg" width="241.799" height="241.813" viewBox="0 0 241.799 241.813">
  <g id="Grupo_82" data-name="Grupo 82" transform="translate(-569.347 -519.271)">
    <rect id="Retângulo_109" data-name="Retângulo 109" width="241.799" height="241.813" transform="translate(569.347 519.271)" fill="#005384"/>
    <g id="Grupo_66" data-name="Grupo 66" transform="translate(587.95 539.552)">
      <path id="Caminho_96" data-name="Caminho 96" d="M579.851,539.569v8.558h.073l5.753-5.969h.073v37.32h8.2V530.722h-6.541Z" transform="translate(-579.851 -530.722)" fill="#fff"/>
    </g>
    <g id="Grupo_78" data-name="Grupo 78" transform="translate(606.72 538.98)">
      <g id="Grupo_67" data-name="Grupo 67">
        <path id="Caminho_97" data-name="Caminho 97" d="M614.468,568.009v-7.192c0-7.982-3.163-12.01-9.061-12.01a7.006,7.006,0,0,0-6.759,3.955h-.071v-10.5c0-2.949.93-5.035,3.882-5.035s3.81,1.725,3.81,4.745v3.243h7.478v-2.593c0-7.193-2.368-12.224-11.434-12.224-8.627,0-11.865,5.536-11.865,13.161v23.728c0,7.548,3.31,13.016,11.939,13.016,8.7,0,12.081-4.745,12.081-12.3m-8.126.717c0,3.091-1.153,4.89-3.955,4.89-2.733,0-3.81-1.869-3.81-4.89V559.81c.142-2.733,1.293-4.46,3.882-4.46,2.8,0,3.882,1.727,3.882,4.892Z" transform="translate(-590.448 -530.399)" fill="#fff"/>
      </g>
      <g id="Grupo_68" data-name="Grupo 68" transform="translate(129.739 62.736)">
        <path id="Caminho_98" data-name="Caminho 98" d="M665.825,565.821s-2.786,3.7-1.977,7.309,4.927,5.751,4.927,5.751,2.79-3.7,1.977-7.306-4.927-5.754-4.927-5.754" transform="translate(-663.701 -565.821)" fill="#fff"/>
      </g>
      <g id="Grupo_69" data-name="Grupo 69" transform="translate(122.244 70.816)">
        <path id="Caminho_99" data-name="Caminho 99" d="M664.547,583.441s2.786-3.7,1.973-7.309-4.924-5.749-4.924-5.749-2.79,3.7-1.98,7.306,4.931,5.753,4.931,5.753" transform="translate(-659.469 -570.383)" fill="#fff"/>
      </g>
      <g id="Grupo_70" data-name="Grupo 70" transform="translate(138.777 76.142)">
        <path id="Caminho_100" data-name="Caminho 100" d="M668.8,577.159s2.943,2.968,6.291,2.669,5.838-3.746,5.838-3.746-2.938-2.968-6.293-2.671-5.836,3.748-5.836,3.748" transform="translate(-668.804 -573.39)" fill="#fff"/>
      </g>
      <g id="Grupo_71" data-name="Grupo 71" transform="translate(141.236 61.687)">
        <path id="Caminho_101" data-name="Caminho 101" d="M672.553,567.6c-2.728,2.77-2.342,7.665-2.342,7.665s4.809.416,7.54-2.349,2.341-7.662,2.341-7.662-4.81-.414-7.54,2.345" transform="translate(-670.192 -565.229)" fill="#fff"/>
      </g>
      <g id="Grupo_72" data-name="Grupo 72" transform="translate(131.967 84.504)">
        <path id="Caminho_102" data-name="Caminho 102" d="M670.573,584.521c3.34.4,6.477-2.473,6.477-2.473s-2.272-3.508-5.609-3.9-6.482,2.474-6.482,2.474,2.274,3.507,5.615,3.9" transform="translate(-664.959 -578.111)" fill="#fff"/>
      </g>
      <g id="Grupo_73" data-name="Grupo 73" transform="translate(112.065 148.933)">
        <path id="Caminho_103" data-name="Caminho 103" d="M682.221,614.489H657.259a3.532,3.532,0,1,0,0,7.063h24.962a3.532,3.532,0,1,0,0-7.063" transform="translate(-653.722 -614.489)" fill="#fff"/>
      </g>
      <g id="Grupo_74" data-name="Grupo 74" transform="translate(112.065 187.86)">
        <path id="Caminho_104" data-name="Caminho 104" d="M682.221,636.468H657.259a3.532,3.532,0,1,0,0,7.063h24.962a3.532,3.532,0,0,0,0-7.063" transform="translate(-653.722 -636.468)" fill="#fff"/>
      </g>
      <g id="Grupo_75" data-name="Grupo 75" transform="translate(26.565 139.914)">
        <path id="Caminho_105" data-name="Caminho 105" d="M607.181,609.842a16.02,16.02,0,0,0-1.734-.445s.641.2,1.734.445" transform="translate(-605.447 -609.397)" fill="#fff"/>
      </g>
      <g id="Grupo_76" data-name="Grupo 76" transform="translate(25.598 72.793)">
        <path id="Caminho_106" data-name="Caminho 106" d="M718.948,657.168H695.816a2.012,2.012,0,0,0-2.008,2.01v7l-15.1,1.661-22.059-.506V653.863a60.709,60.709,0,0,0,8.776-1.78c21.234-5.992,25.869-23.55,25.407-35.695-.464-12.375,3.5-17.178,9.183-19.314a25.642,25.642,0,0,1,4.716-1.25,37.761,37.761,0,0,0,2.039,10.779c.5-.025,1-.067,1.505-.122a35.764,35.764,0,0,1-2.081-10.868,26.53,26.53,0,0,1,5.035-.152,31.905,31.905,0,0,1-4.793-3.413c.955-5.859,4.444-9.454,8.041-13.133a43.308,43.308,0,0,0,5.627-6.608l-1.254-.808a41.674,41.674,0,0,1-5.444,6.372c-3.505,3.587-7.046,7.253-8.243,13.071a47.179,47.179,0,0,1-3.636-3.663c-5.237-5.87-11.978-1.559-21.59,7.393s-21.712,9.254-33.524-2.832c-15.584-15.952-29.179-15.864-38.5-14.959,6.374,2.715,8.608,8.675,11.835,23.821,3.381,15.892,11.914,23.085,23.582,24.075-6.489,2.3-6.812,5.958-15.508,11.964-6.79,4.686-16.347,3.206-20.219,2.324,7.109,2.217,15.531,9.677,23.069,12.272a55.8,55.8,0,0,0,13.753,2.821v12.9l-39.522-.9v9l73.8-1.688,15.1,1.663v7a2.014,2.014,0,0,0,2.008,2.014h23.133a2.018,2.018,0,0,0,2.014-2.014v-22.95a2.016,2.016,0,0,0-2.014-2.01m-70.889-2.823c1.645.028,3.3-.02,4.948-.133v13.044l-4.948-.115Z" transform="translate(-604.901 -571.499)" fill="#fff"/>
      </g>
      <g id="Grupo_77" data-name="Grupo 77" transform="translate(15.747 165.303)">
        <path id="Caminho_107" data-name="Caminho 107" d="M607.031,633.39a3.225,3.225,0,0,1-2.956,3.436H602.3a3.227,3.227,0,0,1-2.958-3.436v-6.222a3.226,3.226,0,0,1,2.958-3.436h1.778a3.223,3.223,0,0,1,2.956,3.436Z" transform="translate(-599.339 -623.732)" fill="#fff"/>
      </g>
    </g>
    <g id="Grupo_79" data-name="Grupo 79" transform="translate(646.548 534.776)">
      <path id="Caminho_108" data-name="Caminho 108" d="M612.936,528.156h4.927c3.351,0,4.577,1.663,4.577,4.431v4.169c0,2.768-1.226,4.458-4.577,4.458h-1.6v6.705h-3.323Zm3.323,2.713v7.781h1.226a1.428,1.428,0,0,0,1.633-1.633v-4.545c0-1.08-.5-1.6-1.633-1.6Z" transform="translate(-612.936 -527.924)" fill="#fff"/>
      <path id="Caminho_109" data-name="Caminho 109" d="M618.8,547.92l3.73-19.764h3.79l3.76,19.764h-3.411l-.611-3.617h-3.528l-.583,3.617Zm4.167-6.268h2.651l-1.311-7.928h-.028Z" transform="translate(-608.417 -527.924)" fill="#fff"/>
      <path id="Caminho_110" data-name="Caminho 110" d="M629.111,545.208h5.042v2.712h-8.51v-2.712l5.218-14.339h-4.7v-2.713h8.191v2.713Z" transform="translate(-603.137 -527.924)" fill="#fff"/>
      <path id="Caminho_111" data-name="Caminho 111" d="M634.844,537.783l-1.691,4.458h-1.865l.409-4.72h3.147Z" transform="translate(-598.784 -520.703)" fill="#fff"/>
      <path id="Caminho_112" data-name="Caminho 112" d="M644.63,528.156V543.43c0,2.857-1.252,4.722-4.577,4.722-3.438,0-4.371-1.9-4.371-4.4v-3.935h3.149v3.994c0,.992.349,1.574,1.222,1.574.905,0,1.254-.583,1.254-1.6V528.156Z" transform="translate(-595.396 -527.924)" fill="#fff"/>
      <path id="Caminho_113" data-name="Caminho 113" d="M651.269,528.156v14.955c0,3.059-1.311,5.041-4.692,5.041-3.5,0-4.954-1.982-4.954-5.041V528.156h3.323V543.43c0,1.167.466,1.953,1.631,1.953s1.633-.786,1.633-1.953V528.156Z" transform="translate(-590.814 -527.924)" fill="#fff"/>
      <path id="Caminho_114" data-name="Caminho 114" d="M647.861,543.765v-2.653h3.089v2.71c0,1.109.5,1.752,1.633,1.752,1.05,0,1.516-.7,1.516-1.752v-.756a3.564,3.564,0,0,0-1.486-2.8l-1.954-1.955c-1.9-1.865-2.768-3-2.768-5.276v-.668c0-2.45,1.428-4.345,4.663-4.345,3.323,0,4.635,1.633,4.635,4.49v1.6h-3.032V532.4c0-1.137-.524-1.691-1.575-1.691a1.458,1.458,0,0,0-1.573,1.633v.407c0,1.107.611,1.75,1.573,2.682l2.127,2.1c1.808,1.837,2.683,2.945,2.683,5.131v.962c0,2.71-1.458,4.633-4.839,4.633S647.861,546.358,647.861,543.765Z" transform="translate(-586.005 -528.025)" fill="#fff"/>
      <path id="Caminho_115" data-name="Caminho 115" d="M653.852,528.156h8.833v2.713h-2.74V547.92h-3.353V530.869h-2.74Z" transform="translate(-581.385 -527.924)" fill="#fff"/>
      <path id="Caminho_116" data-name="Caminho 116" d="M659.547,528.156h3.323V547.92h-3.323Z" transform="translate(-576.994 -527.924)" fill="#fff"/>
      <path id="Caminho_117" data-name="Caminho 117" d="M665.854,550.031c.933-.028,1.08-.234,1.08-.468,0-.2-.175-.319-.468-.319h-.145v-1.079c-2.828-.351-3.994-2.478-3.994-5.246v-9.56c0-3.091,1.458-5.335,4.956-5.335,3.672,0,4.692,2.04,4.692,4.954v2.334h-3.032v-2.595c0-1.226-.407-1.925-1.6-1.925s-1.691.845-1.691,2.04v10.609c0,1.2.5,2.042,1.691,2.042s1.6-.758,1.6-1.923v-3.645h3.032v3.411c0,2.768-1.107,4.81-4.4,4.925v.262c.786.117,1.224.407,1.224,1.048,0,.905-.845,1.4-2.944,1.4Z" transform="translate(-574.849 -528.025)" fill="#fff"/>
      <path id="Caminho_118" data-name="Caminho 118" d="M668.335,547.92l3.73-19.764h3.79l3.76,19.764H676.2l-.609-3.617h-3.53l-.581,3.617Zm4.167-6.268h2.653l-1.311-7.928h-.03Z" transform="translate(-570.217 -527.924)" fill="#fff"/>
      <path id="Caminho_119" data-name="Caminho 119" d="M676.877,528.156H684.8v2.713h-4.6v5.653h3.294V539.2H680.2v6h4.6v2.712h-7.928Z" transform="translate(-563.63 -527.924)" fill="#fff"/>
    </g>
    <g id="Grupo_80" data-name="Grupo 80" transform="translate(646.667 557.717)">
      <path id="Caminho_120" data-name="Caminho 120" d="M613,542.822h3.323v19.76H613Z" transform="translate(-613.003 -539.556)" fill="#fff"/>
      <path id="Caminho_121" data-name="Caminho 121" d="M618.911,550.167v12.416h-2.8v-19.76h3.264l3.585,11.337V542.822h2.77v19.76h-2.915Z" transform="translate(-610.605 -539.556)" fill="#fff"/>
      <path id="Caminho_122" data-name="Caminho 122" d="M622.663,558.428v-2.651h3.091v2.71c0,1.107.494,1.75,1.631,1.75,1.05,0,1.516-.7,1.516-1.75v-.756a3.57,3.57,0,0,0-1.486-2.8l-1.954-1.953c-1.9-1.867-2.768-3-2.768-5.275v-.671c0-2.448,1.428-4.343,4.662-4.343,3.324,0,4.637,1.631,4.637,4.49v1.6h-3.032v-1.72c0-1.135-.524-1.69-1.575-1.69A1.457,1.457,0,0,0,625.812,547v.407c0,1.109.611,1.752,1.573,2.683l2.129,2.1c1.808,1.837,2.681,2.944,2.681,5.129v.962c0,2.71-1.458,4.635-4.84,4.635S622.663,561.023,622.663,558.428Z" transform="translate(-605.554 -539.658)" fill="#fff"/>
      <path id="Caminho_123" data-name="Caminho 123" d="M628.967,542.822H637.8v2.71h-2.74v17.051h-3.351V545.532h-2.742Z" transform="translate(-600.693 -539.556)" fill="#fff"/>
      <path id="Caminho_124" data-name="Caminho 124" d="M634.975,542.822H638.3v19.76h-3.323Z" transform="translate(-596.06 -539.556)" fill="#fff"/>
      <path id="Caminho_125" data-name="Caminho 125" d="M637.871,542.822H646.7v2.71h-2.74v17.051h-3.351V545.532h-2.74Z" transform="translate(-593.827 -539.556)" fill="#fff"/>
      <path id="Caminho_126" data-name="Caminho 126" d="M653.525,542.822v14.952c0,3.061-1.311,5.042-4.692,5.042-3.5,0-4.956-1.982-4.956-5.042V542.822H647.2v15.272c0,1.165.468,1.953,1.633,1.953s1.633-.788,1.633-1.953V542.822Z" transform="translate(-589.195 -539.556)" fill="#fff"/>
      <path id="Caminho_127" data-name="Caminho 127" d="M650.527,542.822h3.323v19.76h-3.323Z" transform="translate(-584.068 -539.556)" fill="#fff"/>
      <path id="Caminho_128" data-name="Caminho 128" d="M657.149,564.7c.933-.028,1.079-.234,1.079-.466,0-.205-.175-.321-.468-.321h-.145v-1.08c-2.827-.349-3.994-2.476-3.994-5.244v-9.562c0-3.089,1.458-5.333,4.956-5.333,3.673,0,4.692,2.04,4.692,4.954v2.333h-3.03v-2.593c0-1.226-.407-1.925-1.6-1.925s-1.69.845-1.69,2.04v10.611c0,1.194.494,2.04,1.69,2.04s1.6-.758,1.6-1.925v-3.643h3.03v3.411c0,2.77-1.107,4.809-4.4,4.926v.262c.786.117,1.222.407,1.222,1.05,0,.9-.843,1.4-2.942,1.4Z" transform="translate(-581.682 -539.658)" fill="#fff"/>
      <path id="Caminho_129" data-name="Caminho 129" d="M660.238,558.905v-9.562c0-3.089,1.514-5.333,5.012-5.333,3.528,0,5.042,2.244,5.042,5.333v9.562c0,3.059-1.514,5.333-5.042,5.333C661.752,564.238,660.238,561.964,660.238,558.905Zm1.98-15.449c.06-1.371.583-2.478,2.042-2.478.843,0,1.544.5,1.982.5a.388.388,0,0,0,.406-.436h1.633c-.057,1.367-.581,2.476-2.039,2.476-.847,0-1.544-.5-1.982-.5a.392.392,0,0,0-.409.438Zm4.752,15.974V548.819c0-1.2-.524-2.04-1.72-2.04-1.165,0-1.69.845-1.69,2.04v10.611c0,1.194.524,2.04,1.69,2.04C666.446,561.47,666.97,560.623,666.97,559.429Z" transform="translate(-576.579 -540.978)" fill="#fff"/>
      <path id="Caminho_130" data-name="Caminho 130" d="M667.134,542.822h7.927v2.71h-4.6v5.655h3.293v2.682h-3.293v6h4.6v2.712h-7.927Z" transform="translate(-571.262 -539.556)" fill="#fff"/>
      <path id="Caminho_131" data-name="Caminho 131" d="M672.663,558.428v-2.651h3.091v2.71c0,1.107.494,1.75,1.631,1.75,1.05,0,1.516-.7,1.516-1.75v-.756a3.57,3.57,0,0,0-1.486-2.8l-1.954-1.953c-1.893-1.867-2.766-3-2.766-5.275v-.671c0-2.448,1.426-4.343,4.661-4.343,3.323,0,4.635,1.631,4.635,4.49v1.6h-3.03v-1.72c0-1.135-.526-1.69-1.576-1.69A1.457,1.457,0,0,0,675.812,547v.407c0,1.109.611,1.752,1.573,2.683l2.129,2.1c1.808,1.837,2.681,2.944,2.681,5.129v.962c0,2.71-1.458,4.635-4.839,4.635S672.663,561.023,672.663,558.428Z" transform="translate(-566.998 -539.658)" fill="#fff"/>
    </g>
    <g id="Grupo_81" data-name="Grupo 81" transform="translate(646.667 587.799)">
      <path id="Caminho_132" data-name="Caminho 132" d="M613,558.095h7.927v2.71h-4.6v5.655h3.292v2.681h-3.292v6.006h4.6v2.71H613Z" transform="translate(-613.003 -557.861)" fill="#fff"/>
      <path id="Caminho_133" data-name="Caminho 133" d="M618.615,558.095H626.4v2.71h-4.46v5.655h3.323v2.681h-3.323v8.716h-3.323Z" transform="translate(-608.675 -557.861)" fill="#fff"/>
      <path id="Caminho_134" data-name="Caminho 134" d="M623.98,558.095H627.3v19.762H623.98Z" transform="translate(-604.539 -557.861)" fill="#fff"/>
      <path id="Caminho_135" data-name="Caminho 135" d="M627.091,572.858V563.3c0-3.092,1.456-5.336,4.955-5.336,3.672,0,4.692,2.04,4.692,4.956v2.333h-3.032v-2.6c0-1.222-.407-1.923-1.6-1.923s-1.69.847-1.69,2.042v10.609c0,1.2.494,2.04,1.69,2.04s1.6-.756,1.6-1.923v-3.643h3.032v3.409c0,2.827-1.165,4.927-4.692,4.927C628.547,578.193,627.091,575.919,627.091,572.858Z" transform="translate(-602.14 -557.963)" fill="#fff"/>
      <path id="Caminho_136" data-name="Caminho 136" d="M633.41,577.857l3.734-19.762h3.788l3.76,19.762h-3.411l-.611-3.615h-3.526l-.584,3.615Zm4.169-6.266h2.653l-1.314-7.929h-.027Z" transform="translate(-597.267 -557.861)" fill="#fff"/>
      <path id="Caminho_137" data-name="Caminho 137" d="M644.039,575.147h5.042v2.71h-8.512v-2.71l5.219-14.343H641.1v-2.71h8.19v2.71Z" transform="translate(-591.746 -557.861)" fill="#fff"/>
      <path id="Caminho_138" data-name="Caminho 138" d="M646.61,558.095h7.929v2.71h-4.607v5.655h3.3v2.681h-3.3v6.006h4.607v2.71H646.61Z" transform="translate(-587.088 -557.861)" fill="#fff"/>
      <path id="Caminho_139" data-name="Caminho 139" d="M652.141,573.7v-2.651h3.089v2.71c0,1.109.5,1.75,1.631,1.75,1.048,0,1.516-.7,1.516-1.75V573a3.575,3.575,0,0,0-1.488-2.8l-1.952-1.954c-1.9-1.863-2.77-3-2.77-5.274v-.671c0-2.448,1.429-4.343,4.665-4.343,3.323,0,4.633,1.633,4.633,4.49v1.6h-3.03v-1.72c0-1.137-.526-1.69-1.574-1.69a1.456,1.456,0,0,0-1.573,1.629v.409c0,1.109.613,1.75,1.573,2.683l2.129,2.1c1.807,1.837,2.68,2.944,2.68,5.131v.962c0,2.712-1.456,4.635-4.837,4.635S652.141,576.3,652.141,573.7Z" transform="translate(-582.823 -557.963)" fill="#fff"/>
    </g>
  </g>
</svg>
