<svg xmlns="http://www.w3.org/2000/svg" width="239.994" height="240.008" viewBox="0 0 239.994 240.008">
  <g id="Grupo_64" data-name="Grupo 64" transform="translate(-877.774 -365.185)">
    <g id="Grupo_56" data-name="Grupo 56" transform="translate(877.774 365.185)">
      <rect id="Retângulo_108" data-name="Retângulo 108" width="239.994" height="240.008" fill="#ad7420"/>
    </g>
    <g id="Grupo_57" data-name="Grupo 57" transform="translate(895.949 385.375)">
      <path id="Caminho_65" data-name="Caminho 65" d="M893.9,388.016h.072v37.044H902.1V376.67h-6.5l-7.488,8.777v8.494h.069Z" transform="translate(-888.113 -376.67)" fill="#fff"/>
    </g>
    <g id="Grupo_60" data-name="Grupo 60" transform="translate(914.644 384.804)">
      <g id="Grupo_58" data-name="Grupo 58">
        <path id="Caminho_66" data-name="Caminho 66" d="M898.894,386.91v5.85h7.422v-6.068c0-2.925,1.427-3.781,3.141-3.781,1.572,0,2.925.642,2.925,3.641v4c0,4-.353,5.566-3,8.35l-4.565,4.854c-4.425,4.711-6.07,7.853-6.07,12.636v8.92h21.13v-6.638h-13.35v-2.282c0-3.785,1.355-5.21,3.426-7.425l5.21-5.493c4.212-4.5,5.142-7.355,5.142-12.207v-4.709c0-6.924-3.354-10.206-10.636-10.206-7.141,0-10.778,3.783-10.778,10.565" transform="translate(-898.748 -376.345)" fill="#fff"/>
      </g>
      <g id="Grupo_59" data-name="Grupo 59" transform="translate(1.086 100.384)">
        <path id="Caminho_67" data-name="Caminho 67" d="M1047.135,442.012c-9.788-7.728-21.524-8.563-26.117-8.563a28.736,28.736,0,0,0-6.3.606l-.643.151c-6.2,1.463-16.575,3.911-28.654,18.9l-.353.439a1.571,1.571,0,0,0-.3.905,1.61,1.61,0,0,0,.211.8l.276.448q2.988,5,4.968,8.689a1.6,1.6,0,0,0,2.584.362c.083-.111.167-.227.225-.318,10.433-14.429,18.608-16.352,24.018-17.623l.67-.158a15.731,15.731,0,0,1,3.314-.281c2.516,0,11.258.418,18.078,5.8,6.068,4.787,9.146,12.439,9.146,22.739,0,17.259-8.352,23.992-15.357,26.6a24.382,24.382,0,0,1-8.563,1.5,30.416,30.416,0,0,1-12.845-2.927l-.5-.243c-6.024-2.617-15.025-8.071-23.53-25.154-17.439-35.025-32.087-38.344-41.788-40.541l-.51-.114a29.172,29.172,0,0,0-6.251-.561c-5.617,0-16.421,1.106-25.682,8.5-6.323,5.042-13.861,14.839-13.861,32.864,0,10.985,2.259,18.24,8.062,25.871a38.6,38.6,0,0,0,30.6,14.536,47.174,47.174,0,0,0,8.862-.867A37.794,37.794,0,0,0,962,507.477l5.1,4.6a1.522,1.522,0,0,0,2.069-.1,1.345,1.345,0,0,0,.369-.97l3.947-24.305,0-.285a1.449,1.449,0,0,0-.475-1.06,1.42,1.42,0,0,0-1.021-.374h-.011l-23.665,6.539-.45.074a1.4,1.4,0,0,0-.754.438,1.465,1.465,0,0,0,.1,2.081l4.9,4.432a23.156,23.156,0,0,1-7.659,3.113,33.571,33.571,0,0,1-6.279.614c-13.408,0-20.005-8.8-20.278-9.169l-.132-.183c-4.08-5.36-5.458-9.922-5.458-18.084,0-10.331,3.025-17.985,8.988-22.749,6.638-5.295,15.176-5.706,17.637-5.706a16.675,16.675,0,0,1,3.352.279l.524.118c7.744,1.753,18.347,4.152,33.047,33.68,7.765,15.591,17.5,25.787,29.739,31.163a43.774,43.774,0,0,0,18.745,4.347,37.385,37.385,0,0,0,13.077-2.32c7.149-2.669,23.779-11.785,23.779-38.739,0-18.013-7.65-27.835-14.067-32.9" transform="translate(-899.366 -433.449)" fill="#fff"/>
      </g>
    </g>
    <g id="Grupo_61" data-name="Grupo 61" transform="translate(954.388 385.025)">
      <path id="Caminho_68" data-name="Caminho 68" d="M921.356,391.257v-9.491c0-3.068,1.448-5.295,4.919-5.295,3.646,0,4.66,2.025,4.66,4.92V383.7h-3.01v-2.574c0-1.217-.406-1.911-1.593-1.911s-1.679.839-1.679,2.025v10.533c0,1.187.494,2.025,1.679,2.025s1.593-.752,1.593-1.911v-3.618h3.01v3.386c0,2.807-1.158,4.892-4.66,4.892C922.8,396.554,921.356,394.3,921.356,391.257Z" transform="translate(-921.356 -376.471)" fill="#fff"/>
      <path id="Caminho_69" data-name="Caminho 69" d="M927.808,391.257v-9.491c0-3.068,1.5-5.295,4.979-5.295,3.5,0,5,2.227,5,5.295v9.491c0,3.039-1.5,5.3-5,5.3C929.313,396.554,927.808,394.3,927.808,391.257Zm6.684.522V381.246c0-1.187-.522-2.025-1.705-2.025-1.16,0-1.679.839-1.679,2.025v10.533c0,1.187.519,2.025,1.679,2.025C933.969,393.8,934.492,392.966,934.492,391.779Z" transform="translate(-916.466 -376.471)" fill="#fff"/>
      <path id="Caminho_70" data-name="Caminho 70" d="M937.317,383.9v12.327h-2.778V376.6h3.242l3.558,11.258V376.6h2.751v19.62h-2.9Z" transform="translate(-911.364 -376.372)" fill="#fff"/>
      <path id="Caminho_71" data-name="Caminho 71" d="M940.926,392.1v-2.633h3.066v2.691c0,1.1.492,1.735,1.621,1.735,1.042,0,1.5-.694,1.5-1.735V391.4a3.539,3.539,0,0,0-1.477-2.776l-1.937-1.939c-1.883-1.853-2.749-2.982-2.749-5.239v-.664c0-2.431,1.417-4.312,4.629-4.312,3.3,0,4.6,1.621,4.6,4.456v1.593h-3.01v-1.709c0-1.129-.519-1.677-1.561-1.677a1.447,1.447,0,0,0-1.563,1.619v.406c0,1.1.608,1.735,1.563,2.662l2.113,2.083c1.793,1.823,2.661,2.922,2.661,5.093v.955c0,2.691-1.447,4.6-4.8,4.6S940.926,394.673,940.926,392.1Z" transform="translate(-906.523 -376.471)" fill="#fff"/>
      <path id="Caminho_72" data-name="Caminho 72" d="M956.857,376.6v14.846c0,3.038-1.3,5.007-4.66,5.007-3.47,0-4.919-1.969-4.919-5.007V376.6h3.3v15.164c0,1.157.464,1.939,1.621,1.939s1.623-.782,1.623-1.939V376.6Z" transform="translate(-901.709 -376.372)" fill="#fff"/>
      <path id="Caminho_73" data-name="Caminho 73" d="M962.85,383.49h-.088l-2.229,12.733H959l-2.459-12.733h-.058v12.733h-2.72V376.6h3.848l2.141,11.056h.028l1.911-11.056h4.168v19.62h-3.01Z" transform="translate(-896.794 -376.372)" fill="#fff"/>
      <path id="Caminho_74" data-name="Caminho 74" d="M961.7,391.257v-9.491c0-3.068,1.5-5.295,4.977-5.295,3.5,0,5.007,2.227,5.007,5.295v9.491c0,3.039-1.5,5.3-5.007,5.3C963.2,396.554,961.7,394.3,961.7,391.257Zm6.684.522V381.246c0-1.187-.52-2.025-1.707-2.025-1.157,0-1.679.839-1.679,2.025v10.533c0,1.187.522,2.025,1.679,2.025C967.859,393.8,968.38,392.966,968.38,391.779Z" transform="translate(-890.781 -376.471)" fill="#fff"/>
      <path id="Caminho_75" data-name="Caminho 75" d="M970.123,376.6h7.87V379.3h-4.572v5.613h3.27v2.662h-3.27v5.961h4.572v2.691h-7.87Z" transform="translate(-884.394 -376.372)" fill="#fff"/>
    </g>
    <g id="Grupo_62" data-name="Grupo 62" transform="translate(954.388 410.833)">
      <path id="Caminho_76" data-name="Caminho 76" d="M921.356,393h4.891c3.328,0,4.544,1.649,4.544,4.4v4.138c0,2.748-1.216,4.426-4.544,4.426h-1.593v6.656h-3.3Zm3.3,2.69v7.726h1.217a1.418,1.418,0,0,0,1.621-1.621v-4.513c0-1.071-.492-1.593-1.621-1.593Z" transform="translate(-921.356 -389.754)" fill="#fff"/>
      <path id="Caminho_77" data-name="Caminho 77" d="M931.157,403.616v9h-3.3V393h4.8c3.328,0,4.542,1.649,4.542,4.4v2.517c0,2.111-.752,3.356-2.632,3.79l3.154,8.913h-3.474Zm0-7.93v6.105h1.1a1.427,1.427,0,0,0,1.621-1.619v-2.894c0-1.071-.49-1.593-1.621-1.593Z" transform="translate(-916.429 -389.754)" fill="#fff"/>
      <path id="Caminho_78" data-name="Caminho 78" d="M934.342,407.65v-9.489c0-3.069,1.5-5.3,4.977-5.3,3.5,0,5,2.227,5,5.3v9.489c0,3.039-1.5,5.295-5,5.295C935.847,412.945,934.342,410.689,934.342,407.65Zm6.684.52V397.638c0-1.187-.519-2.025-1.707-2.025-1.157,0-1.677.839-1.677,2.025V408.17c0,1.187.52,2.027,1.677,2.027C940.507,410.2,941.026,409.357,941.026,408.17Z" transform="translate(-911.514 -389.854)" fill="#fff"/>
      <path id="Caminho_79" data-name="Caminho 79" d="M951.12,398.261v9.087c0,3.01-1.243,5.267-4.775,5.267h-5.091V393h5.091C949.878,393,951.12,395.223,951.12,398.261Zm-5.179,11.662c1.359,0,1.881-.81,1.881-2V397.655a1.72,1.72,0,0,0-1.881-1.969h-1.389v14.237Z" transform="translate(-906.274 -389.754)" fill="#fff"/>
      <path id="Caminho_80" data-name="Caminho 80" d="M957.679,393V407.84c0,3.038-1.3,5-4.66,5-3.47,0-4.917-1.967-4.917-5V393h3.3v15.162c0,1.157.464,1.939,1.621,1.939s1.621-.782,1.621-1.939V393Z" transform="translate(-901.085 -389.754)" fill="#fff"/>
      <path id="Caminho_81" data-name="Caminho 81" d="M958.268,414.71c.927-.028,1.071-.23,1.071-.462,0-.2-.174-.318-.464-.318h-.144v-1.072c-2.806-.346-3.962-2.458-3.962-5.207v-9.489c0-3.069,1.445-5.3,4.917-5.3,3.648,0,4.66,2.025,4.66,4.919V400.1h-3.01v-2.575c0-1.215-.406-1.909-1.591-1.909s-1.679.839-1.679,2.025V408.17c0,1.187.492,2.027,1.679,2.027s1.591-.752,1.591-1.909V404.67h3.01v3.386c0,2.748-1.1,4.774-4.37,4.889v.26c.782.118,1.216.406,1.216,1.042,0,.9-.84,1.389-2.923,1.389Z" transform="translate(-896.032 -389.854)" fill="#fff"/>
      <path id="Caminho_82" data-name="Caminho 82" d="M961.1,414.012l3.706-19.618h3.762l3.732,19.618h-3.386l-.608-3.59h-3.5l-.578,3.59Zm2.575-20.4c.06-1.361.578-2.459,2.027-2.459.839,0,1.533.492,1.967.492a.388.388,0,0,0,.4-.434H969.7c-.058,1.359-.58,2.459-2.027,2.459-.839,0-1.533-.492-1.967-.492a.389.389,0,0,0-.406.434Zm1.565,14.179h2.632l-1.3-7.87h-.03Z" transform="translate(-891.231 -391.152)" fill="#fff"/>
      <path id="Caminho_83" data-name="Caminho 83" d="M968.411,407.65v-9.489c0-3.069,1.507-5.3,4.977-5.3,3.5,0,5.007,2.227,5.007,5.3v9.489c0,3.039-1.5,5.295-5.007,5.295C969.918,412.945,968.411,410.689,968.411,407.65Zm6.685.52V397.638c0-1.187-.522-2.025-1.709-2.025-1.157,0-1.677.839-1.677,2.025V408.17c0,1.187.52,2.027,1.677,2.027C974.574,410.2,975.1,409.357,975.1,408.17Z" transform="translate(-885.692 -389.854)" fill="#fff"/>
    </g>
    <g id="Grupo_63" data-name="Grupo 63" transform="translate(954.388 439.217)">
      <path id="Caminho_84" data-name="Caminho 84" d="M924.654,420.009v9h-3.3V409.389h4.8c3.326,0,4.542,1.649,4.542,4.4V416.3c0,2.113-.752,3.358-2.633,3.79l3.156,8.914h-3.474Zm0-7.93v6.107h1.1a1.428,1.428,0,0,0,1.621-1.621v-2.893c0-1.071-.492-1.593-1.621-1.593Z" transform="translate(-921.356 -405.713)" fill="#fff"/>
      <path id="Caminho_85" data-name="Caminho 85" d="M927.742,409.389h7.87v2.69H931.04v5.613h3.27v2.663h-3.27v5.963h4.572v2.69h-7.87Z" transform="translate(-916.516 -405.713)" fill="#fff"/>
      <path id="Caminho_86" data-name="Caminho 86" d="M933.157,424.883v-2.635h3.068v2.693c0,1.1.492,1.735,1.619,1.735,1.042,0,1.507-.694,1.507-1.735v-.752a3.546,3.546,0,0,0-1.477-2.779l-1.939-1.939c-1.881-1.851-2.748-2.98-2.748-5.237v-.664c0-2.431,1.415-4.312,4.629-4.312,3.3,0,4.6,1.621,4.6,4.456V415.3h-3.01V413.6c0-1.129-.52-1.677-1.563-1.677a1.446,1.446,0,0,0-1.561,1.619v.406c0,1.1.607,1.735,1.561,2.661l2.113,2.083c1.795,1.823,2.661,2.922,2.661,5.094v.955c0,2.69-1.445,4.6-4.8,4.6S933.157,427.457,933.157,424.883Z" transform="translate(-912.412 -405.813)" fill="#fff"/>
      <path id="Caminho_87" data-name="Caminho 87" d="M939.56,409.389h4.889c3.328,0,4.542,1.649,4.542,4.4v4.136c0,2.751-1.215,4.428-4.542,4.428h-1.593v6.656h-3.3Zm3.3,2.69v7.728h1.217a1.418,1.418,0,0,0,1.621-1.621v-4.514c0-1.071-.492-1.593-1.621-1.593Z" transform="translate(-907.559 -405.713)" fill="#fff"/>
      <path id="Caminho_88" data-name="Caminho 88" d="M945.945,424.043v-9.489c0-3.069,1.507-5.3,4.977-5.3,3.5,0,5.007,2.227,5.007,5.3v9.489c0,3.039-1.5,5.3-5.007,5.3C947.452,429.34,945.945,427.082,945.945,424.043Zm6.685.522V414.032c0-1.187-.52-2.027-1.709-2.027-1.157,0-1.677.84-1.677,2.027v10.533c0,1.187.52,2.025,1.677,2.025C952.11,426.59,952.63,425.752,952.63,424.565Z" transform="translate(-902.719 -405.813)" fill="#fff"/>
      <path id="Caminho_89" data-name="Caminho 89" d="M955.521,416.681v12.327h-2.778V409.389h3.242l3.556,11.256V409.389h2.751v19.618h-2.9Z" transform="translate(-897.567 -405.713)" fill="#fff"/>
      <path id="Caminho_90" data-name="Caminho 90" d="M959.194,424.883v-2.635h3.068v2.693c0,1.1.494,1.735,1.621,1.735,1.041,0,1.5-.694,1.5-1.735v-.752a3.549,3.549,0,0,0-1.475-2.779l-1.941-1.939c-1.879-1.851-2.748-2.98-2.748-5.237v-.664c0-2.431,1.419-4.312,4.63-4.312,3.3,0,4.6,1.621,4.6,4.456V415.3h-3.01V413.6c0-1.129-.522-1.677-1.563-1.677a1.445,1.445,0,0,0-1.561,1.619v.406c0,1.1.606,1.735,1.561,2.661l2.111,2.083c1.795,1.823,2.663,2.922,2.663,5.094v.955c0,2.69-1.447,4.6-4.8,4.6S959.194,427.457,959.194,424.883Z" transform="translate(-892.678 -405.813)" fill="#fff"/>
      <path id="Caminho_91" data-name="Caminho 91" d="M965.3,430.592l3.7-19.618h3.762l3.732,19.618h-3.386L972.5,427H969l-.58,3.588Zm8.276-21.007-5.182.664V408.4l5.182-1.1Zm-4.14,14.786h2.633l-1.3-7.872h-.028Z" transform="translate(-888.049 -407.298)" fill="#fff"/>
      <path id="Caminho_92" data-name="Caminho 92" d="M983.267,409.389l-3.734,19.618h-3.586l-3.734-19.618h3.356l2.257,13.687h.03l2.313-13.687Z" transform="translate(-882.81 -405.713)" fill="#fff"/>
      <path id="Caminho_93" data-name="Caminho 93" d="M979.323,409.389h7.87v2.69h-4.572v5.613h3.272v2.663h-3.272v5.963h4.572v2.69h-7.87Z" transform="translate(-877.422 -405.713)" fill="#fff"/>
      <path id="Caminho_94" data-name="Caminho 94" d="M984.837,409.389h3.3v19.618h-3.3Z" transform="translate(-873.242 -405.713)" fill="#fff"/>
      <path id="Caminho_95" data-name="Caminho 95" d="M987.733,424.883v-2.635H990.8v2.693c0,1.1.492,1.735,1.621,1.735,1.041,0,1.5-.694,1.5-1.735v-.752a3.549,3.549,0,0,0-1.475-2.779l-1.941-1.939c-1.879-1.851-2.748-2.98-2.748-5.237v-.664c0-2.431,1.419-4.312,4.63-4.312,3.3,0,4.6,1.621,4.6,4.456V415.3h-3.01V413.6c0-1.129-.522-1.677-1.563-1.677a1.446,1.446,0,0,0-1.563,1.619v.406c0,1.1.608,1.735,1.563,2.661l2.113,2.083c1.793,1.823,2.662,2.922,2.662,5.094v.955c0,2.69-1.447,4.6-4.8,4.6S987.733,427.457,987.733,424.883Z" transform="translate(-871.047 -405.813)" fill="#fff"/>
    </g>
  </g>
</svg>
